<?xml version="1.0" encoding="UTF-8"?>
<svg width="64px" height="57px" viewBox="0 0 64 57" version="1.1" xmlns="http://www.w3.org/2000/svg" xmlns:xlink="http://www.w3.org/1999/xlink">
    <!-- Generator: Sketch 51.2 (57519) - http://www.bohemiancoding.com/sketch -->
    <title>alerta</title>
    <desc>Created with Sketch.</desc>
    <defs></defs>
    <g id="Desk" stroke="none" stroke-width="1" fill="none" fill-rule="evenodd">
        <g id="Pop-de-recuperacion-Copy" transform="translate(-650.000000, -186.000000)" fill="#2D72B4" fill-rule="nonzero">
            <g id="alerta" transform="translate(650.000000, 186.000000)">
                <path d="M62.8998849,44.1675393 L39.8895781,4.47643979 C38.3757421,1.79057592 35.3480701,0 32.3203982,0 C28.989959,0 26.2650542,1.4921466 24.7512183,4.47643979 L1.13537698,43.8691099 C-0.378458995,46.5549738 -0.378458995,49.8376963 1.13537698,52.5235602 C2.64921296,55.2094241 5.67688492,57 8.70455688,57 L55.0279379,57 C58.358377,57 61.0832818,55.5078534 62.5971178,52.5235602 C64.4137209,50.1361257 64.4137209,46.8534031 62.8998849,44.1675393 Z M59.872213,51.0314136 C58.9639114,52.5235602 57.1473082,53.7172775 55.330705,53.7172775 L9.00732408,53.7172775 C7.1907209,53.7172775 5.37411773,52.8219895 4.46581614,51.0314136 C3.55751455,49.539267 3.55751455,47.4502618 4.46581614,45.9581152 L27.7788902,6.26701571 C28.6871918,4.77486911 30.503795,3.58115183 32.3203982,3.58115183 C34.1370013,3.58115183 35.9536045,4.47643979 36.8619061,6.26701571 L59.872213,45.9581152 C60.7805146,47.4502618 60.7805146,49.539267 59.872213,51.0314136 Z M30.2010278,34.9162304 L30.2010278,20.591623 C30.2010278,19.6963351 31.1093294,18.8010471 32.017631,18.8010471 C32.9259326,18.8010471 33.8342341,19.6963351 33.8342341,20.591623 L33.8342341,34.9162304 C33.8342341,35.8115183 32.9259326,36.7068063 32.017631,36.7068063 C31.1093294,36.7068063 30.2010278,35.8115183 30.2010278,34.9162304 Z M34.4397685,43.2722513 C34.4397685,44.4659686 33.2286997,45.6596859 32.017631,45.6596859 C30.8065622,45.6596859 29.5954934,44.4659686 29.5954934,43.2722513 C29.5954934,42.078534 30.8065622,40.8848168 32.017631,40.8848168 C33.2286997,40.8848168 34.4397685,41.7801047 34.4397685,43.2722513 Z" id="Shape"></path>
            </g>
        </g>
    </g>
</svg>