<?xml version="1.0" encoding="UTF-8"?>
<svg width="33px" height="55px" viewBox="0 0 33 55" version="1.1" xmlns="http://www.w3.org/2000/svg" xmlns:xlink="http://www.w3.org/1999/xlink">
    <!-- Generator: Sketch 51.2 (57519) - http://www.bohemiancoding.com/sketch -->
    <title>logo ginni</title>
    <desc>Created with Sketch.</desc>
    <defs>
        <polygon id="path-1" points="0 0.0181214145 32.8653482 0.0181214145 32.8653482 44.8229895 0 44.8229895"></polygon>
        <polygon id="path-3" points="0.176980322 0.24 13.782794 0.24 13.782794 5.8277334 0.176980322 5.8277334"></polygon>
    </defs>
    <g id="Cellphone" stroke="none" stroke-width="1" fill="none" fill-rule="evenodd">
        <g id="Celular-Mi-Espacio-Copy" transform="translate(-35.000000, -15.000000)">
            <g id="logo-ginni" transform="translate(35.000000, 15.000000)">
                <g id="Group-15" transform="translate(0.000000, 10.000000)">
                    <mask id="mask-2" fill="white">
                        <use xlink:href="#path-1"></use>
                    </mask>
                    <g id="Clip-14"></g>
                    <path d="M31.6505357,5.724895 C30.8688482,4.5660637 29.7880982,3.59937171 28.4383393,2.85137023 L26.8840982,2.03542052 L26.8051339,1.99744945 C25.8970446,1.60175096 24.9288482,1.27742665 23.9258839,1.03389792 C22.9626964,0.801503572 21.9703393,0.598515384 20.9821071,0.431214289 C19.0348125,0.0886181907 17.0365446,-0.0415683266 15.0400446,0.0432242077 C13.047375,0.129729723 11.0918304,0.455196016 9.22791964,1.01048719 C6.65421429,1.62773116 4.48947321,2.62782627 2.79409821,3.98222285 C0.940205357,5.46337998 0,7.39562197 0,9.72527544 L0,19.1152635 C0,20.4242661 0.540080357,21.5968012 1.60433036,22.6006078 C2.65974107,23.5978479 3.91639286,24.1034627 5.33951786,24.1034627 C5.84541964,24.1034627 6.32951786,23.9170333 6.73907143,23.5647303 C7.18309821,23.1830212 7.42765179,22.6776919 7.42765179,22.1421 C7.42765179,21.529424 7.18339286,20.9806993 6.73730357,20.5944221 C6.32657143,20.2429757 5.84335714,20.0571173 5.33951786,20.0571173 C4.96473214,20.0571173 4.69778571,19.9649018 4.47415179,19.7584877 C4.26525,19.5657774 4.17597321,19.3736381 4.17597321,19.1152635 L4.17597321,9.72527544 C4.17597321,8.53646698 4.64710714,7.60203612 5.65832143,6.78551542 C6.79505357,5.86821437 8.31541071,5.15504349 10.1757857,4.66655855 C11.8240179,4.23831343 13.5252857,3.99164424 15.2318571,3.9334029 C16.9460893,3.87401958 18.6791786,3.98393583 20.3795625,4.25801271 C21.5929018,4.45443447 22.7546786,4.73079532 23.8327768,5.07910135 C24.8758125,5.41627301 25.8009911,5.83966469 26.5815,6.33757102 C27.311625,6.80378721 27.8832321,7.33680964 28.2798214,7.92093599 C28.6363393,8.44767749 28.81725,9.05435808 28.81725,9.72527544 L28.81725,20.1036532 C28.81725,21.2970296 28.5043393,22.2614377 27.8876518,22.9700406 C27.1940625,23.7654345 26.3104286,24.4129412 25.2612054,24.8945742 C24.1604196,25.3999034 22.9629911,25.7510644 21.701625,25.9394923 C20.3907589,26.135343 19.1703482,26.2346959 18.0504107,26.2355524 C16.7934643,26.2760929 15.4837768,26.2863708 14.1558214,26.2655296 C13.7748482,26.2601051 13.3950536,26.2503982 13.0167321,26.2401204 C12.0508929,26.2149966 11.0523482,26.1893019 10.0626429,26.2364089 C5.83540179,26.4379696 4.33566964,29.3814411 4.33566964,31.8409956 C4.33566964,33.3184412 4.86249107,34.6334393 5.90140179,35.749446 C6.4185,36.3524152 7.08085714,36.7969336 7.8705,37.0704395 C8.59208036,37.3202492 9.35019643,37.4467242 10.1256964,37.4467242 L10.2685982,37.4461532 C15.1970893,37.4244555 18.3503571,37.4170326 18.7045179,37.4264539 C20.7051429,37.4784144 20.7042589,38.4011398 20.703375,39.2153766 L20.703375,39.2476377 C20.703375,39.70586 20.5752054,40.0344667 20.2876339,40.3133971 C19.9184464,40.6716955 19.5186161,40.8384256 19.0298036,40.8384256 L14.8656161,40.8387111 C12.2895536,40.8866745 12.0237857,42.1551366 12.0290893,42.6981514 C12.0405804,43.8501308 13.3794375,44.8231037 14.9525357,44.8231037 L19.0298036,44.8231037 C19.8020625,44.8231037 20.5592946,44.6963432 21.2814643,44.4465335 C22.0702232,44.1730276 22.7322857,43.7285092 23.2496786,43.1252545 C24.2885893,42.0092478 24.8154107,40.6945352 24.8154107,39.2170896 C24.8154107,36.9907859 23.9120357,35.6869223 23.1539196,34.9854568 C21.9612054,33.8811553 20.2263482,33.3684032 17.9882411,33.4623316 L10.1215714,33.4623316 C9.63246429,33.4623316 9.23233929,33.295316 8.8625625,32.9364466 C8.57970536,32.6623697 8.44770536,32.3240561 8.44770536,31.8501315 C8.44741071,31.0404627 8.44711607,30.3412811 10.2090804,30.2162336 C11.1018482,30.1528533 12.024375,30.1939648 13.0011161,30.2370748 C13.3664732,30.2533481 13.7330089,30.269336 14.0998393,30.2801848 C15.4817143,30.3232948 16.8376607,30.3018826 18.1308482,30.2190885 C19.5902143,30.2165191 21.1627232,30.0643493 22.8044732,29.7671472 C24.5051518,29.4602382 26.0979911,28.9337822 27.5387946,28.2029105 C29.0311607,27.4454876 30.2925268,26.4091344 31.2872411,25.1229716 C32.3344018,23.7711445 32.8653482,22.0821457 32.8653482,20.1036532 L32.8653482,9.72527544 C32.8653482,8.26838553 32.4566786,6.92255386 31.6505357,5.724895" id="Fill-13" fill="#2D72B4" mask="url(#mask-2)"></path>
                </g>
                <g id="Group-18" transform="translate(10.000000, 0.000000)">
                    <mask id="mask-4" fill="white">
                        <use xlink:href="#path-3"></use>
                    </mask>
                    <g id="Clip-17"></g>
                    <path d="M13.0482085,2.29570909 C12.2150596,1.40743636 11.1156128,0.924163636 9.92084681,0.621436364 C8.96050638,0.377890909 7.97544255,0.229527273 6.97995319,0.240436364 C5.98446383,0.229527273 4.9994,0.377890909 4.0387617,0.621436364 C2.84429362,0.924163636 1.74484681,1.40743636 0.911697872,2.29570909 C0.17952766,3.07598182 -0.0453659574,4.29098182 0.419314894,5.0268 C0.927187234,5.83161818 1.71059149,6.04243636 2.56161277,5.60225455 C3.91335745,4.90298182 5.26837872,4.20916364 6.6126766,3.49789091 C6.74552766,3.42752727 6.86288936,3.39316364 6.97995319,3.39343636 C7.09701702,3.39316364 7.21437872,3.42752727 7.34722979,3.49789091 C8.69152766,4.20916364 10.0465489,4.90298182 11.3982936,5.60225455 C12.249017,6.04243636 13.0327191,5.83161818 13.5405915,5.0268 C14.0049745,4.29098182 13.7803787,3.07598182 13.0482085,2.29570909" id="Fill-16" fill="#C00767" mask="url(#mask-4)"></path>
                </g>
            </g>
        </g>
    </g>
</svg>