<?xml version="1.0" encoding="utf-8"?>
<!-- Generator: Adobe Illustrator 23.1.1, SVG Export Plug-In . SVG Version: 6.00 Build 0)  -->
<svg version="1.1" id="Layer_1" xmlns="http://www.w3.org/2000/svg" xmlns:xlink="http://www.w3.org/1999/xlink" x="0px" y="0px"
	 viewBox="0 0 133 18" style="enable-background:new 0 0 133 18;" xml:space="preserve">
<style type="text/css">
	.st0{clip-path:url(#SVGID_2_);}
	.st1{clip-path:url(#SVGID_4_);enable-background:new    ;}
	.st2{clip-path:url(#SVGID_6_);}
	.st3{clip-path:url(#SVGID_8_);fill:#FFFFFF;}
	.st4{clip-path:url(#SVGID_8_);fill:#9B9B9B;}
</style>
<g>
	<defs>
		<path id="SVGID_1_" d="M108.46,13.25c0.45,0.45,1,0.67,1.64,0.67c0.65,0,1.19-0.22,1.63-0.67c0.44-0.45,0.66-1.01,0.66-1.67
			c0-0.64-0.22-1.17-0.66-1.61c-0.44-0.44-0.99-0.65-1.63-0.65c-0.65,0-1.19,0.22-1.64,0.65c-0.45,0.43-0.67,0.97-0.67,1.61
			C107.78,12.24,108.01,12.8,108.46,13.25z M115.04,16.21c-1.31,1.19-2.96,1.79-4.94,1.79c-1.98,0-3.63-0.6-4.94-1.79
			c-1.31-1.19-1.96-2.76-1.96-4.7c0-1.88,0.65-3.4,1.96-4.55c1.31-1.15,2.95-1.73,4.94-1.73c1.98,0,3.63,0.58,4.94,1.73
			c1.31,1.15,1.96,2.67,1.96,4.55C117,13.45,116.35,15.02,115.04,16.21z M98.28,7.02c0.87-1.11,2.25-1.67,4.15-1.67v4.75
			c-0.34-0.07-0.65-0.11-0.93-0.11c-0.66,0-1.24,0.17-1.74,0.52c-0.5,0.35-0.79,0.88-0.88,1.58v5.8h-5.25V5.74h4.65V7.02z
			 M87.37,9.16c-0.35-0.33-0.82-0.5-1.41-0.5c-0.59,0-1.07,0.16-1.46,0.49c-0.38,0.33-0.64,0.77-0.77,1.33h4.21
			C87.92,9.94,87.73,9.5,87.37,9.16z M92.03,11.27c0,0.36-0.04,0.88-0.11,1.56l-8,0.04c0.51,1.13,1.82,1.69,3.9,1.69
			c1.07,0,2.23-0.2,3.46-0.59v3.23C89.89,17.74,88.44,18,86.91,18c-2.35,0-4.2-0.58-5.55-1.73c-1.35-1.15-2.02-2.75-2.02-4.79
			c0-1.93,0.6-3.45,1.81-4.57c1.21-1.12,2.77-1.68,4.7-1.68c1.96,0,3.47,0.56,4.55,1.69C91.49,8.06,92.03,9.5,92.03,11.27z
			 M70.93,13.92c0.59,0,1.1-0.19,1.53-0.59c0.43-0.39,0.66-0.97,0.67-1.74c0-0.75-0.22-1.32-0.65-1.69
			c-0.43-0.38-0.95-0.57-1.55-0.59c-0.62-0.01-1.14,0.19-1.58,0.62c-0.43,0.43-0.65,0.97-0.65,1.64c0,0.68,0.21,1.24,0.64,1.68
			C69.77,13.7,70.3,13.92,70.93,13.92z M72.78,0h5.23v17.7h-4.65v-1.11C72.65,17.53,71.54,18,70.02,18c-1.69,0-3.1-0.6-4.22-1.81
			c-1.12-1.21-1.69-2.76-1.69-4.66c0-1.87,0.56-3.38,1.68-4.55c1.12-1.17,2.54-1.75,4.28-1.75c1.12,0,2.02,0.26,2.71,0.78V0z
			 M57.49,5.24c1.6,0,2.87,0.4,3.79,1.22c0.93,0.81,1.39,2,1.39,3.58v7.66H57.4v-6.62c0-0.52-0.15-0.91-0.45-1.18
			c-0.3-0.27-0.68-0.4-1.14-0.4c-0.47,0-0.86,0.14-1.17,0.43c-0.31,0.29-0.46,0.69-0.46,1.19v6.58h-5.25V5.54h4.48v1.3
			C54.41,5.77,55.77,5.24,57.49,5.24z M39.39,13.92c0.59-0.01,1.1-0.21,1.53-0.6c0.43-0.38,0.65-0.96,0.65-1.73
			c0-0.75-0.22-1.32-0.65-1.69c-0.43-0.38-0.95-0.57-1.55-0.59c-0.62-0.01-1.14,0.19-1.58,0.62c-0.43,0.43-0.65,0.97-0.65,1.64
			c0,0.68,0.22,1.24,0.66,1.69C38.24,13.72,38.77,13.93,39.39,13.92z M41.79,5.54h4.65V17.7h-4.65v-1.11
			C41.08,17.53,39.97,18,38.46,18c-1.69,0-3.1-0.6-4.22-1.81c-1.13-1.21-1.69-2.77-1.69-4.68c0-1.85,0.56-3.36,1.69-4.53
			c1.12-1.17,2.53-1.75,4.22-1.75c1.51,0,2.62,0.46,3.33,1.39V5.54z M27.19,9.2l-1.63-2.27l1.63-2.27h-5.74V17.7H16V0.33h8.66
			c4.44,0,7.09,2.63,7.09,6.59c0,3.98-2.65,6.61-7.09,6.61h-2.12V9.2H27.19z"/>
	</defs>
	<clipPath id="SVGID_2_">
		<use xlink:href="#SVGID_1_"  style="overflow:visible;"/>
	</clipPath>
	<g class="st0">
		<defs>
			<rect id="SVGID_3_" width="133" height="18"/>
		</defs>
		<clipPath id="SVGID_4_">
			<use xlink:href="#SVGID_3_"  style="overflow:visible;"/>
		</clipPath>
		<g class="st1">
			<g>
				<defs>
					<rect id="SVGID_5_" x="11" y="-5" width="112" height="28"/>
				</defs>
				<clipPath id="SVGID_6_">
					<use xlink:href="#SVGID_5_"  style="overflow:visible;"/>
				</clipPath>
				<g class="st2">
					<defs>
						<rect id="SVGID_7_" x="16" width="101" height="18"/>
					</defs>
					<clipPath id="SVGID_8_">
						<use xlink:href="#SVGID_7_"  style="overflow:visible;"/>
					</clipPath>
					<rect x="11" y="-5" class="st3" width="111" height="28"/>
					<rect x="11" y="-5" class="st4" width="111" height="28"/>
				</g>
			</g>
		</g>
	</g>
</g>
</svg>
