<?xml version="1.0" encoding="UTF-8"?>
<svg width="27px" height="24px" viewBox="0 0 27 24" version="1.1" xmlns="http://www.w3.org/2000/svg" xmlns:xlink="http://www.w3.org/1999/xlink">
    <!-- Generator: Sketch 52.2 (67145) - http://www.bohemiancoding.com/sketch -->
    <title>Group 10</title>
    <desc>Created with Sketch.</desc>
    <defs>
        <polygon id="path-1" points="0.00017704918 0.0903692929 26.7786885 0.0903692929 26.7786885 14.9331976 0.00017704918 14.9331976"></polygon>
    </defs>
    <g id="Desk" stroke="none" stroke-width="1" fill="none" fill-rule="evenodd">
        <g id="Estado-de-cuenta-6" transform="translate(-266.000000, -1195.000000)">
            <g id="Group-10" transform="translate(266.000000, 1195.000000)">
                <path d="M20.1564083,3.94682635 C20.135333,3.48646707 20.3082459,3.04 20.6430549,2.68982036 C20.9960654,2.32 21.4913337,2.10826347 22.0009715,2.10826347 C23.0178523,2.10826347 23.8445768,2.93556886 23.8445768,3.95209581 C23.8445768,4.98634731 23.0346167,5.79640719 22.0009715,5.79640719 C20.9840908,5.79640719 20.1564083,4.9691018 20.1564083,3.94682635 M22.0009715,8 C24.20573,8 26,6.20598802 26,4 C26,1.79449102 24.20573,0 22.0009715,0 C19.7952552,0 18.0009851,1.79449102 18.0009851,3.99712575 C17.9775149,5.03281437 18.3741128,6.02203593 19.1174943,6.78275449 C19.8738084,7.55640719 20.9246969,8 22.0009715,8" id="Fill-1" fill="#4A4A4A"></path>
                <path d="M3.15568862,3.95209581 C3.15568862,2.96958084 4.01748503,2.10778443 5,2.10778443 C6.01700599,2.10778443 6.84431138,2.93508982 6.84431138,3.95209581 C6.84431138,4.9691018 6.01700599,5.79640719 5,5.79640719 C3.98299401,5.79640719 3.15568862,4.9691018 3.15568862,3.95209581 M5,8 C7.20550898,8 9,6.20598802 9,4 C9,1.79449102 7.20550898,0 5,0 C2.79449102,0 1,1.79449102 1,4 C1,6.16814371 2.83185629,8 5,8" id="Fill-3" fill="#4A4A4A"></path>
                <path d="M14,4.15568862 C15.017006,4.15568862 15.8443114,4.98299401 15.8443114,6 C15.8443114,7.01700599 15.017006,7.84431138 14,7.84431138 C13.017485,7.84431138 12.1556886,6.98251497 12.1556886,6 C12.1556886,4.9657485 12.9657485,4.15568862 14,4.15568862 M14,10 C16.205509,10 18,8.20598802 18,6 C18,3.79449102 16.205509,2 14,2 C11.794491,2 10,3.79449102 10,6 C10,8.20598802 11.794491,10 14,10" id="Fill-5" fill="#4A4A4A"></path>
                <g id="Group-9" transform="translate(0.000000, 9.000000)">
                    <mask id="mask-2" fill="white">
                        <use xlink:href="#path-1"></use>
                    </mask>
                    <g id="Clip-8"></g>
                    <path d="M25.0747672,0.0903692929 L18.3021934,0.0903692929 C17.3381607,0.0903692929 16.5542754,0.89224404 16.5542754,1.87784404 L16.5542754,2.35299556 L10.2690295,2.35299556 L10.2690295,1.87784404 C10.2690295,0.89224404 9.48470164,0.0903692929 8.52066885,0.0903692929 L1.7485377,0.0903692929 C0.784504918,0.0903692929 0.00017704918,0.89224404 0.00017704918,1.87784404 L0.00017704918,11.697642 C0.00017704918,12.2587733 0.446783607,12.7158238 0.996078689,12.7158238 L2.89891475,12.7158238 C3.44820984,12.7158238 3.89481639,12.2587733 3.89481639,11.697642 C3.89481639,11.1365107 3.44820984,10.6794602 2.89891475,10.6794602 L1.99198033,10.6794602 L1.99198033,2.17198545 L8.27722623,2.17198545 L8.27722623,10.6342077 L7.36984918,10.6342077 C6.8205541,10.6342077 6.37394754,11.0912582 6.37394754,11.6523895 C6.37394754,12.2139733 6.8205541,12.6705713 7.36984918,12.6705713 L8.27722623,12.6705713 L8.27722623,13.9150158 C8.27722623,14.4765996 8.72383279,14.9331976 9.27312787,14.9331976 L11.1764066,14.9331976 C11.725259,14.9331976 12.1723082,14.4765996 12.1723082,13.9150158 C12.1723082,13.3538844 11.725259,12.8968339 11.1764066,12.8968339 L10.2690295,12.8968339 L10.2690295,4.38935919 L16.5095705,4.38935919 L16.5095705,12.8515814 L15.6026361,12.8515814 C15.053341,12.8515814 14.6067344,13.3081794 14.6067344,13.8697632 C14.6067344,14.4308945 15.053341,14.8879451 15.6026361,14.8879451 L17.5054721,14.8879451 C18.0547672,14.8879451 18.5013738,14.4308945 18.5013738,13.8697632 L18.5013738,12.6253188 L19.4087508,12.6253188 C19.9576033,12.6253188 20.4046525,12.1682683 20.4046525,11.607137 C20.4046525,11.0455531 19.9576033,10.5889552 19.4087508,10.5889552 L18.5013738,10.5889552 L18.5013738,2.12673293 L24.7870623,2.12673293 L24.7870623,10.6342077 L23.8796852,10.6342077 C23.3308328,10.6342077 22.8837836,11.0912582 22.8837836,11.6523895 C22.8837836,12.2139733 23.3308328,12.6705713 23.8796852,12.6705713 L25.7829639,12.6705713 C26.3318164,12.6705713 26.7788656,12.2139733 26.7788656,11.6523895 L26.7788656,1.87784404 C26.7788656,0.89224404 26.0144557,0.0903692929 25.0747672,0.0903692929" id="Fill-7" fill="#4A4A4A" mask="url(#mask-2)"></path>
                </g>
            </g>
        </g>
    </g>
</svg>