<?xml version="1.0" encoding="utf-8"?>
<!-- Generator: Adobe Illustrator 22.1.0, SVG Export Plug-In . SVG Version: 6.00 Build 0)  -->
<svg version="1.1" id="Layer_1" xmlns="http://www.w3.org/2000/svg" xmlns:xlink="http://www.w3.org/1999/xlink" x="0px" y="0px"
	 viewBox="0 0 18 18" style="enable-background:new 0 0 18 18;" xml:space="preserve">
<title>cart</title>
<g>
	<path d="M7.2,8.9H6C5.4,8.9,5,9.3,5,9.8c0,0.5,0.4,0.9,0.9,0.9h0.3c0.1,0.4,0.5,0.6,0.9,0.6c0.5,0,0.9-0.4,0.9-0.8
		c0.7-0.4,1.2-1.1,1.2-1.9c0-1.2-1-2.2-2.2-2.2C7,6.5,6.9,6.3,6.9,6.2S7,5.9,7.2,5.9h1.2c0.5,0,0.9-0.4,0.9-0.9S8.9,4,8.4,4H8.1
		C7.9,3.7,7.6,3.4,7.2,3.4c-0.5,0-0.9,0.4-0.9,0.8C5.5,4.6,5,5.4,5,6.2c0,1.2,1,2.2,2.1,2.2c0.2,0,0.3,0.1,0.3,0.3
		C7.5,8.8,7.3,8.9,7.2,8.9z"/>
	<path d="M15.7,4.4L15.7,4.4c-0.1-0.1-0.1-0.2-0.2-0.3l-3-3c-0.1-0.1-0.2-0.2-0.3-0.2c-0.1,0-0.2-0.1-0.4-0.1H3.1
		c-0.5,0-0.9,0.4-0.9,0.9v14.6c0,0.5,0.4,0.9,0.9,0.9h11.8c0.5,0,0.9-0.4,0.9-0.9V4.7C15.8,4.6,15.8,4.5,15.7,4.4z M11.8,5.7h2.1
		v9.7H4V2.6h6.9v2.1C10.9,5.2,11.3,5.7,11.8,5.7z"/>
	<path d="M9.9,10.5c0,0.5,0.4,0.9,0.9,0.9H12c0.5,0,0.9-0.4,0.9-0.9c0-0.5-0.4-0.9-0.9-0.9h-1.2C10.3,9.5,9.9,9.9,9.9,10.5z"/>
	<path d="M12,12.3H6c-0.5,0-0.9,0.4-0.9,0.9c0,0.5,0.4,0.9,0.9,0.9H12c0.5,0,0.9-0.4,0.9-0.9C13,12.8,12.6,12.3,12,12.3z"/>
</g>
</svg>
