<?xml version="1.0" encoding="UTF-8"?>
<svg width="17px" height="21px" viewBox="0 0 17 21" version="1.1" xmlns="http://www.w3.org/2000/svg" xmlns:xlink="http://www.w3.org/1999/xlink">
    <!-- Generator: Sketch 55.2 (78181) - https://sketchapp.com -->
    <title>Path</title>
    <desc>Created with Sketch.</desc>
    <g id="Page-1" stroke="none" stroke-width="1" fill="none" fill-rule="evenodd">
        <g id="3.-Simulaciondetalle-del-contrato" transform="translate(-231.000000, -387.000000)" fill="#4A4A4A">
            <path d="M246.111111,394.193 C246.111111,394.677 245.728611,395 245.1525,395 L233.8475,395 C233.272333,395 232.888889,394.677 232.888889,394.193 L232.888889,390.806 C232.888889,390.322 233.272333,390 233.8475,390 L245.1525,390 C245.728611,390 246.111111,390.322 246.111111,390.806 L246.111111,394.193 Z M246.111111,403.71 C246.111111,404.483 246.028944,405 245.906167,405 L243.483667,405 C243.359944,405 243.277778,404.483 243.277778,403.71 L243.277778,398.29 C243.277778,397.516 243.359944,397 243.483667,397 L245.906167,397 C246.028944,397 246.111111,397.516 246.111111,398.29 L246.111111,403.71 Z M239.027778,400 C238.245778,400 237.611111,399.328 237.611111,398.5 C237.611111,397.671 238.245778,397 239.027778,397 C239.809778,397 240.444444,397.671 240.444444,398.5 C240.444444,399.328 239.809778,400 239.027778,400 L239.027778,400 Z M239.027778,405 C238.245778,405 237.611111,404.328 237.611111,403.5 C237.611111,402.672 238.245778,402 239.027778,402 C239.809778,402 240.444444,402.672 240.444444,403.5 C240.444444,404.328 239.809778,405 239.027778,405 L239.027778,405 Z M234.305556,400 C233.523556,400 232.888889,399.328 232.888889,398.5 C232.888889,397.671 233.523556,397 234.305556,397 C235.087556,397 235.722222,397.671 235.722222,398.5 C235.722222,399.328 235.087556,400 234.305556,400 L234.305556,400 Z M234.305556,405 C233.523556,405 232.888889,404.328 232.888889,403.5 C232.888889,402.672 233.523556,402 234.305556,402 C235.087556,402 235.722222,402.672 235.722222,403.5 C235.722222,404.328 235.087556,405 234.305556,405 L234.305556,405 Z M244.789833,387 L234.022222,387 C232.322222,387 231,388.278 231,389.922 L231,405.078 C231,406.721 232.322222,408 234.022222,408 L244.977778,408 C246.678722,408 248,406.721 248,405.078 L248,389.922 C247.811111,388.278 246.488889,387 244.789833,387 L244.789833,387 Z" id="Fill-1"></path>
        </g>
    </g>
</svg>