<?xml version="1.0" encoding="UTF-8"?>
<svg width="17px" height="21px" viewBox="0 0 17 21" version="1.1" xmlns="http://www.w3.org/2000/svg" xmlns:xlink="http://www.w3.org/1999/xlink">
    <!-- Generator: Sketch 55.2 (78181) - https://sketchapp.com -->
    <title>Group 3</title>
    <desc>Created with Sketch.</desc>
    <g id="Page-1" stroke="none" stroke-width="1" fill="none" fill-rule="evenodd" opacity="0.25">
        <g id="2.informacion-del-contrato" transform="translate(-568.000000, -392.000000)" fill="#FFFFFF">
            <g id="Group-3" transform="translate(568.000000, 392.000000)">
                <path d="M15.1111111,7.193 C15.1111111,7.677 14.7286111,8 14.1525,8 L2.8475,8 C2.27233333,8 1.88888889,7.677 1.88888889,7.193 L1.88888889,3.806 C1.88888889,3.322 2.27233333,3 2.8475,3 L14.1525,3 C14.7286111,3 15.1111111,3.322 15.1111111,3.806 L15.1111111,7.193 Z M15.1111111,16.71 C15.1111111,17.483 15.0289444,18 14.9061667,18 L12.4836667,18 C12.3599444,18 12.2777778,17.483 12.2777778,16.71 L12.2777778,11.29 C12.2777778,10.516 12.3599444,10 12.4836667,10 L14.9061667,10 C15.0289444,10 15.1111111,10.516 15.1111111,11.29 L15.1111111,16.71 Z M8.02777778,13 C7.24577778,13 6.61111111,12.328 6.61111111,11.5 C6.61111111,10.671 7.24577778,10 8.02777778,10 C8.80977778,10 9.44444444,10.671 9.44444444,11.5 C9.44444444,12.328 8.80977778,13 8.02777778,13 L8.02777778,13 Z M8.02777778,18 C7.24577778,18 6.61111111,17.328 6.61111111,16.5 C6.61111111,15.672 7.24577778,15 8.02777778,15 C8.80977778,15 9.44444444,15.672 9.44444444,16.5 C9.44444444,17.328 8.80977778,18 8.02777778,18 L8.02777778,18 Z M3.30555556,13 C2.52355556,13 1.88888889,12.328 1.88888889,11.5 C1.88888889,10.671 2.52355556,10 3.30555556,10 C4.08755556,10 4.72222222,10.671 4.72222222,11.5 C4.72222222,12.328 4.08755556,13 3.30555556,13 L3.30555556,13 Z M3.30555556,18 C2.52355556,18 1.88888889,17.328 1.88888889,16.5 C1.88888889,15.672 2.52355556,15 3.30555556,15 C4.08755556,15 4.72222222,15.672 4.72222222,16.5 C4.72222222,17.328 4.08755556,18 3.30555556,18 L3.30555556,18 Z M13.7898333,0 L3.02222222,0 C1.32222222,0 0,1.278 0,2.922 L0,18.078 C0,19.721 1.32222222,21 3.02222222,21 L13.9777778,21 C15.6787222,21 17,19.721 17,18.078 L17,2.922 C16.8111111,1.278 15.4888889,0 13.7898333,0 L13.7898333,0 Z" id="Fill-1"></path>
            </g>
        </g>
    </g>
</svg>