<?xml version="1.0" encoding="utf-8"?>
<!-- Generator: Adobe Illustrator 21.0.2, SVG Export Plug-In . SVG Version: 6.00 Build 0)  -->
<svg version="1.1" id="Capa_1" xmlns="http://www.w3.org/2000/svg" xmlns:xlink="http://www.w3.org/1999/xlink" x="0px" y="0px"
	 viewBox="0 0 24 24" style="enable-background:new 0 0 24 24;" xml:space="preserve">
<title>alert-circle</title>
<path d="M11.8,23.1c6.1,0,11-4.9,11-11s-4.9-11-11-11s-11,4.9-11,11S5.7,23.1,11.8,23.1z M11.8,3.1c5,0,9,4,9,9s-4,9-9,9s-9-4-9-9
	S6.8,3.1,11.8,3.1z"/>
<path d="M16.7,8.5c-0.4-0.4-1-0.4-1.4,0l-5,5l-1.9-1.9c-0.2-0.2-0.4-0.3-0.7-0.3h0c-0.3,0-0.5,0.1-0.7,0.3s-0.3,0.5-0.3,0.7
	c0,0.3,0.1,0.5,0.3,0.7l2.6,2.6c0.2,0.2,0.4,0.3,0.7,0.3s0.5-0.1,0.7-0.3l5.7-5.7C17.1,9.6,17.1,8.9,16.7,8.5z"/>
</svg>
