<?xml version="1.0" encoding="utf-8"?>
<!-- Generator: Adobe Illustrator 22.1.0, SVG Export Plug-In . SVG Version: 6.00 Build 0)  -->
<svg version="1.1" id="Layer_1" xmlns="http://www.w3.org/2000/svg" xmlns:xlink="http://www.w3.org/1999/xlink" x="0px" y="0px"
	 viewBox="0 0 18 18" style="enable-background:new 0 0 18 18;" xml:space="preserve">
<title>cart</title>
<path d="M9,0.9C5.4,0.9,1.7,2,1.7,4.2v9.6c0,2.2,3.7,3.3,7.3,3.3s7.3-1.1,7.3-3.3V4.2C16.3,2,12.6,0.9,9,0.9z M14.5,12.8v1
	c0,0.3-1.7,1.5-5.5,1.5c-3.8,0-5.5-1.2-5.5-1.5v-1c1.4,0.7,3.3,1.1,5.5,1.1S13.1,13.5,14.5,12.8z M14.5,9.6v1c0,0.3-1.7,1.5-5.5,1.5
	c-3.8,0-5.5-1.2-5.5-1.5v-1c1.4,0.7,3.3,1.1,5.5,1.1S13.1,10.3,14.5,9.6z M14.5,6.4v1c0,0.3-1.7,1.5-5.5,1.5c-3.8,0-5.5-1.2-5.5-1.5
	v-1C4.9,7.1,6.8,7.5,9,7.5S13.1,7.1,14.5,6.4z M3.5,4.2c0-0.3,1.7-1.5,5.5-1.5c3.8,0,5.5,1.2,5.5,1.5S12.8,5.7,9,5.7
	C5.2,5.7,3.5,4.5,3.5,4.2z"/>
</svg>
