<!-- Generated by IcoMoon.io -->
<svg version="1.1" xmlns="http://www.w3.org/2000/svg" width="1024" height="1024" viewBox="0 0 1024 1024">
<title></title>
<g id="icomoon-ignore">
</g>
<path fill="#9b9b9b" d="M605.091 289.382h372.364c25.74 0 46.545-19.901 46.545-44.522 0-24.576-20.806-44.522-46.545-44.522h-372.364c-25.74 0-46.545 19.946-46.545 44.522 0 24.621 20.806 44.522 46.545 44.522zM977.455 556.513h-372.364c-25.74 0-46.545 19.946-46.545 44.522 0 24.621 20.806 44.522 46.545 44.522h372.364c25.74 0 46.545-19.901 46.545-44.522 0-24.576-20.806-44.522-46.545-44.522zM977.455 734.6h-372.364c-25.74 0-46.545 19.946-46.545 44.522 0 24.621 20.806 44.522 46.545 44.522h372.364c25.74 0 46.545-19.901 46.545-44.522 0-24.576-20.806-44.522-46.545-44.522zM977.455 378.426h-372.364c-25.74 0-46.545 19.946-46.545 44.522 0 24.621 20.806 44.522 46.545 44.522h372.364c25.74 0 46.545-19.901 46.545-44.522 0-24.576-20.806-44.522-46.545-44.522zM418.909 200.339h-372.364c-25.693 0-46.545 19.946-46.545 44.522 0 24.621 20.852 44.522 46.545 44.522h372.364c25.693 0 46.545-19.901 46.545-44.522 0-24.576-20.852-44.522-46.545-44.522zM418.909 556.513h-372.364c-25.693 0-46.545 19.946-46.545 44.522 0 24.621 20.852 44.522 46.545 44.522h372.364c25.693 0 46.545-19.901 46.545-44.522 0-24.576-20.852-44.522-46.545-44.522zM418.909 734.6h-372.364c-25.693 0-46.545 19.946-46.545 44.522 0 24.621 20.852 44.522 46.545 44.522h372.364c25.693 0 46.545-19.901 46.545-44.522 0-24.576-20.852-44.522-46.545-44.522zM465.455 422.948c0 24.621-20.852 44.522-46.545 44.522h-372.364c-25.693 0-46.545-19.901-46.545-44.522 0-24.576 20.852-44.522 46.545-44.522h372.364c25.693 0 46.545 19.946 46.545 44.522z"></path>
</svg>
