<?xml version="1.0" encoding="utf-8"?>
<!-- Generator: Adobe Illustrator 21.0.2, SVG Export Plug-In . SVG Version: 6.00 Build 0)  -->
<svg version="1.1" id="Capa_1" xmlns="http://www.w3.org/2000/svg" xmlns:xlink="http://www.w3.org/1999/xlink" x="0px" y="0px"
	 viewBox="0 0 91 93.3" style="enable-background:new 0 0 91 93.3;" xml:space="preserve">
<path d="M30.2,6C9.1,13.5-1.9,36.7,5.6,57.8c7.5,21.1,30.7,32.1,51.8,24.6l21,3.7c0.6,0.1,1.2,0,1.7-0.2c1.5-0.6,2.2-2.4,1.6-3.9
	l-5.5-13c2.4-3,4.3-6.4,5.7-10c1.8-4.7,2.8-9.7,2.8-14.7c0-22.4-18.1-40.6-40.5-40.6C39.3,3.6,34.6,4.4,30.2,6z M21.7,70.5
	c-14.5-12.3-16.3-34.1-4-48.7s34.1-16.3,48.7-4s16.3,34.1,4,48.7c-0.7,0.9-0.9,2.1-0.5,3.1l4.1,9.6l-16.4-2.9
	c-0.5-0.1-1.1,0-1.6,0.1c-3.8,1.4-7.9,2.2-12,2.2C35.9,78.7,28,75.8,21.7,70.5z"/>
<circle cx="60.4" cy="44.9" r="6.2"/>
<circle cx="44.1" cy="44.9" r="6.2"/>
<circle cx="27.8" cy="44.9" r="6.2"/>
</svg>
