<?xml version="1.0" encoding="utf-8"?>
<!-- Generator: Adobe Illustrator 22.1.0, SVG Export Plug-In . SVG Version: 6.00 Build 0)  -->
<svg version="1.1" id="Layer_1" xmlns="http://www.w3.org/2000/svg" xmlns:xlink="http://www.w3.org/1999/xlink" x="0px" y="0px"
	 viewBox="0 0 24 24" style="enable-background:new 0 0 24 24;" xml:space="preserve">
<title>clock</title>
<g>
	<path d="M21.7,18.6c-0.5,0-1-0.4-1-1c0-1.6-1.3-2.9-2.9-2.9S15,16,15,17.6V19l0,0v0.5c0,0.5-0.4,1-1,1c-0.5,0-1-0.4-1-1
		c0-2.6-2.2-4.8-4.8-4.8s-4.8,2.2-4.8,4.8c0,0.5-0.4,1-1,1s-1-0.4-1-1v-0.3c0-0.2,0.1-1,0.2-1.2c0.4-1.9,1.6-3.4,3.3-4.3
		C3.5,12.7,2.5,10.9,2.5,9c0-3.2,2.6-5.8,5.8-5.8S14,5.8,14,9c0,2-1,3.7-2.5,4.7c0.8,0.4,1.5,1.1,2.1,1.8c0.4-0.7,0.9-1.4,1.6-1.8
		C14.5,13,14,11.9,14,10.9c0-2.1,1.7-3.8,3.8-3.8s3.8,1.7,3.8,3.8c0,1.1-0.4,2.1-1.2,2.7c0.8,0.6,1.5,1.4,1.8,2.3
		c0.1,0.3,0.2,0.9,0.3,1.2v0.5C22.7,18.1,22.2,18.6,21.7,18.6z M12.1,9c0-2.1-1.7-3.8-3.8-3.8S4.5,6.9,4.5,9s1.7,3.8,3.8,3.8
		S12.1,11.1,12.1,9z M17.9,9C16.8,9,16,9.8,16,10.9s0.9,1.9,1.9,1.9c1.1,0,1.9-0.9,1.9-1.9S18.9,9,17.9,9z"/>
</g>
</svg>
