<?xml version="1.0" encoding="UTF-8"?>
<svg width="26px" height="20px" viewBox="0 0 26 20" version="1.1" xmlns="http://www.w3.org/2000/svg" xmlns:xlink="http://www.w3.org/1999/xlink">
    <!-- Generator: Sketch 52.2 (67145) - http://www.bohemiancoding.com/sketch -->
    <title>Group 12</title>
    <desc>Created with Sketch.</desc>
    <defs>
        <polygon id="path-1" points="0.487391667 0.495401136 18.8498917 0.495401136 18.8498917 12.8068182 0.487391667 12.8068182"></polygon>
        <polygon id="path-3" points="0 0.501136364 20.4749458 0.501136364 20.4749458 7.177275 0 7.177275"></polygon>
    </defs>
    <g id="Page-1" stroke="none" stroke-width="1" fill="none" fill-rule="evenodd">
        <g id="1.-Bandeja-inicial-reactivaciones" transform="translate(-1308.000000, -289.000000)">
            <g id="Group-12" transform="translate(1308.000000, 289.000000)">
                <g id="Group-11">
                    <path d="M14.9455583,12.8716318 C14.2413917,12.0920864 13.8075167,11.0898136 13.8075167,9.97617727 C13.8075167,8.86254091 14.187225,7.86026818 14.9455583,7.08072273 C15.70335,6.35685909 16.6788917,5.91140455 17.762225,5.91140455 C18.7913917,5.91140455 19.8205583,6.30117727 20.57835,7.08072273 C21.2830583,7.86026818 21.7163917,8.86254091 21.7163917,9.97617727 C21.7163917,10.9667568 21.4146833,11.8676886 20.8150583,12.6038023 C20.7121417,12.6578136 20.6130167,12.7251886 20.524725,12.81595 C20.443475,12.8994727 20.3828083,12.9919045 20.3318917,13.0882341 C19.6136417,13.6823591 18.7318083,14.04095 17.762225,14.04095 C16.6788917,14.04095 15.70335,13.6511773 14.9455583,12.8716318 M25.562225,16.4352682 L22.76235,13.557075 C23.4800583,12.5197227 23.8830583,11.2835864 23.8830583,9.97617727 C23.8830583,8.30572273 23.2330583,6.74663182 22.0955583,5.57731364 C20.9038917,4.40799545 19.387225,3.73981364 17.762225,3.73981364 C16.137225,3.73981364 14.5663917,4.40799545 13.4288917,5.57731364 C12.2913917,6.74663182 11.6413917,8.30572273 11.6413917,9.97617727 C11.6413917,11.6466318 12.2913917,13.2057227 13.4288917,14.3750409 C14.6200167,15.5443591 16.137225,16.2125409 17.762225,16.2125409 C19.0194333,16.2125409 20.2105583,15.8411432 21.2375583,15.1078136 L24.0455583,17.9949159 C24.262225,18.2170864 24.5330583,18.32845 24.8038917,18.32845 C25.074725,18.32845 25.3455583,18.2170864 25.562225,17.9949159 C25.9950167,17.5489045 25.9950167,16.8807227 25.562225,16.4352682" id="Fill-1" fill="#4A4A4A"></path>
                    <g id="Group-5" transform="translate(0.541667, 6.737500)">
                        <mask id="mask-2" fill="white">
                            <use xlink:href="#path-1"></use>
                        </mask>
                        <g id="Clip-4"></g>
                        <path d="M16.683225,7.98460568 L16.683225,10.6350602 L2.59989167,10.6350602 L2.59989167,0.556651136 L13.2756,0.556651136 C13.2891417,0.537719318 13.30485,0.519901136 13.3189333,0.501526136 L0.541558333,0.501526136 C0.523141667,0.501526136 0.505808333,0.496514773 0.487391667,0.495401136 L0.487391667,11.6935716 C0.487391667,12.3055148 0.974891667,12.807208 1.570725,12.807208 L17.7058917,12.807208 C17.775225,12.807208 17.8191,12.7982989 17.8440167,12.7832648 C18.4035583,12.7409466 18.8498917,12.2626398 18.8498917,11.6774239 L18.8498917,7.8197875 C18.3818917,7.95954886 17.8835583,8.03471932 17.36735,8.03471932 C17.1344333,8.03471932 16.907475,8.01411705 16.683225,7.98460568" id="Fill-3" fill="#4A4A4A" mask="url(#mask-2)"></path>
                    </g>
                    <g id="Group-8" transform="translate(0.000000, 0.055682)">
                        <mask id="mask-4" fill="white">
                            <use xlink:href="#path-3"></use>
                        </mask>
                        <g id="Clip-7"></g>
                        <path d="M2.11244583,5.01125227 L2.11244583,2.67261591 L18.3082792,2.67261591 L18.3082792,5.01125227 C18.5899458,5.01125227 18.8461542,5.12651364 19.0395292,5.30970682 C19.5535708,5.42385455 20.0356542,5.6154 20.4749458,5.86986591 L20.4749458,1.61466136 C20.4749458,1.00216136 19.9874458,0.501025 19.3916125,0.501025 L1.08327917,0.501025 C0.487445833,0.501025 -5.41666667e-05,1.00216136 -5.41666667e-05,1.61466136 L-5.41666667e-05,6.06920682 C-5.41666667e-05,6.662775 0.4587375,7.14720682 1.0291125,7.177275 L1.0291125,6.12488864 C1.0291125,5.51238864 1.5166125,5.01125227 2.11244583,5.01125227" id="Fill-6" fill="#4A4A4A" mask="url(#mask-4)"></path>
                    </g>
                    <path d="M13.8606542,7.23874773 C14.7630708,6.028225 16.2380292,5.23698636 17.9090708,5.23698636 C18.2979875,5.23698636 18.6760708,5.28431591 19.0395292,5.36505455 C18.8461542,5.18186136 18.5899458,5.06715682 18.3082792,5.06715682 L2.11244583,5.06715682 C1.5166125,5.06715682 1.0291125,5.56829318 1.0291125,6.18079318 L1.0291125,7.23317955 C1.04752917,7.23373636 1.0648625,7.23874773 1.08327917,7.23874773 L13.8606542,7.23874773 Z" id="Fill-9" fill="#4A4A4A"></path>
                </g>
            </g>
        </g>
    </g>
</svg>