<?xml version="1.0" encoding="UTF-8"?>
<svg width="29px" height="22px" viewBox="0 0 29 22" version="1.1" xmlns="http://www.w3.org/2000/svg" xmlns:xlink="http://www.w3.org/1999/xlink">
    <!-- Generator: Sketch 55.2 (78181) - https://sketchapp.com -->
    <title>Group 12</title>
    <desc>Created with Sketch.</desc>
    <defs>
        <polygon id="path-1" points="0.543629167 0.54494125 21.0248792 0.54494125 21.0248792 14.0875 0.543629167 14.0875"></polygon>
        <polygon id="path-3" points="0 0.55125 22.8374396 0.55125 22.8374396 7.8950025 0 7.8950025"></polygon>
    </defs>
    <g id="Page-1" stroke="none" stroke-width="1" fill="none" fill-rule="evenodd">
        <g id="1.Pantalla-inicial" transform="translate(-91.000000, -394.000000)">
            <g id="Group-12" transform="translate(91.000000, 394.000000)">
                <g id="Group-11">
                    <path d="M16.6700458,14.158795 C15.8846292,13.301295 15.4006917,12.198795 15.4006917,10.973795 C15.4006917,9.748795 15.8242125,8.646295 16.6700458,7.788795 C17.515275,6.992545 18.6033792,6.502545 19.8117125,6.502545 C20.9596292,6.502545 22.1075458,6.931295 22.952775,7.788795 C23.7387958,8.646295 24.2221292,9.748795 24.2221292,10.973795 C24.2221292,12.0634325 23.8856083,13.0544575 23.2167958,13.8641825 C23.1020042,13.923595 22.9914417,13.9977075 22.8929625,14.097545 C22.8023375,14.18942 22.7346708,14.291095 22.6778792,14.3970575 C21.8767542,15.050595 20.8931708,15.445045 19.8117125,15.445045 C18.6033792,15.445045 17.515275,15.016295 16.6700458,14.158795 M28.5117125,18.078795 L25.388775,14.9127825 C26.1892958,13.771695 26.6387958,12.411945 26.6387958,10.973795 C26.6387958,9.136295 25.9137958,7.421295 24.6450458,6.135045 C23.3158792,4.848795 21.6242125,4.113795 19.8117125,4.113795 C17.9992125,4.113795 16.2471292,4.848795 14.9783792,6.135045 C13.7096292,7.421295 12.9846292,9.136295 12.9846292,10.973795 C12.9846292,12.811295 13.7096292,14.526295 14.9783792,15.812545 C16.3069417,17.098795 17.9992125,17.833795 19.8117125,17.833795 C21.2139833,17.833795 22.5425458,17.4252575 23.6880458,16.618595 L26.8200458,19.7944075 C27.0617125,20.038795 27.3637958,20.161295 27.6658792,20.161295 C27.9679625,20.161295 28.2700458,20.038795 28.5117125,19.7944075 C28.9944417,19.303795 28.9944417,18.568795 28.5117125,18.078795" id="Fill-1" fill="#FFFFFF" opacity="0.25"></path>
                    <g id="Group-5" transform="translate(0.604167, 7.411250)">
                        <mask id="mask-2" fill="white">
                            <use xlink:href="#path-1"></use>
                        </mask>
                        <g id="Clip-4"></g>
                        <path d="M18.6082125,8.78306625 L18.6082125,11.6985663 L2.89987917,11.6985663 L2.89987917,0.61231625 L14.8074,0.61231625 C14.8225042,0.59149125 14.840025,0.57189125 14.8557333,0.55167875 L0.604045833,0.55167875 C0.583504167,0.55167875 0.564170833,0.54616625 0.543629167,0.54494125 L0.543629167,12.8629288 C0.543629167,13.5360663 1.08737917,14.0879288 1.7519625,14.0879288 L19.7488792,14.0879288 C19.8262125,14.0879288 19.87515,14.0781288 19.9029417,14.0615913 C20.5270458,14.0150413 21.0248792,13.4889038 21.0248792,12.8451663 L21.0248792,8.60176625 C20.5028792,8.75550375 19.9470458,8.83819125 19.371275,8.83819125 C19.1114833,8.83819125 18.8583375,8.81552875 18.6082125,8.78306625" id="Fill-3" fill="#FFFFFF" opacity="0.25" mask="url(#mask-2)"></path>
                    </g>
                    <g id="Group-8" transform="translate(0.000000, 0.061250)">
                        <mask id="mask-4" fill="white">
                            <use xlink:href="#path-3"></use>
                        </mask>
                        <g id="Clip-7"></g>
                        <path d="M2.35618958,5.5123775 L2.35618958,2.9398775 L20.4207729,2.9398775 L20.4207729,5.5123775 C20.7349396,5.5123775 21.0207104,5.639165 21.2363979,5.8406775 C21.8097521,5.96624 22.3474604,6.17694 22.8374396,6.4568525 L22.8374396,1.7761275 C22.8374396,1.1023775 22.2936896,0.5511275 21.6291062,0.5511275 L1.20827292,0.5511275 C0.543689583,0.5511275 -6.04166667e-05,1.1023775 -6.04166667e-05,1.7761275 L-6.04166667e-05,6.6761275 C-6.04166667e-05,7.3290525 0.51166875,7.8619275 1.14785625,7.8950025 L1.14785625,6.7373775 C1.14785625,6.0636275 1.69160625,5.5123775 2.35618958,5.5123775" id="Fill-6" fill="#FFFFFF" opacity="0.25" mask="url(#mask-4)"></path>
                    </g>
                    <path d="M15.4599604,7.9626225 C16.4665021,6.6310475 18.1116479,5.760685 19.9755021,5.760685 C20.4092938,5.760685 20.8310021,5.8127475 21.2363979,5.90156 C21.0207104,5.7000475 20.7349396,5.5738725 20.4207729,5.5738725 L2.35618958,5.5738725 C1.69160625,5.5738725 1.14785625,6.1251225 1.14785625,6.7988725 L1.14785625,7.9564975 C1.16839792,7.95711 1.18773125,7.9626225 1.20827292,7.9626225 L15.4599604,7.9626225 Z" id="Fill-9" fill="#FFFFFF" opacity="0.25"></path>
                </g>
            </g>
        </g>
    </g>
</svg>