<?xml version="1.0" encoding="utf-8"?>
<!-- Generator: Adobe Illustrator 22.1.0, SVG Export Plug-In . SVG Version: 6.00 Build 0)  -->
<svg version="1.1" id="Layer_1" xmlns="http://www.w3.org/2000/svg" xmlns:xlink="http://www.w3.org/1999/xlink" x="0px" y="0px"
	 viewBox="0 0 28.3 18" style="enable-background:new 0 0 28.3 18;" xml:space="preserve">
<title>trash</title>
<g>
	<path d="M1.6,1.4v15.2h20.8l4.4-4.4V1.4H1.6z M23.3,12.6l-0.5,0.5v-0.5H23.3z M23.9,3.6h0.7v0.9C24.2,4.3,24,4,23.9,3.6z M3.8,14.4
		v-0.7c0.4,0.1,0.7,0.4,0.9,0.7H3.8z M20.6,10.4v4H7.1c-0.4-1.6-1.7-2.7-3.3-3V7.1C5.6,6.8,7,5.4,7.2,3.6h14.4
		c0.2,1.6,1.4,2.9,3,3.3v3.5H20.6z M3.8,4.8V3.6H5C4.8,4.2,4.3,4.6,3.8,4.8z"/>
	<path d="M14.2,4.4c-2.5,0-4.6,2.1-4.6,4.6c0,2.5,2.1,4.6,4.6,4.6c2.5,0,4.6-2.1,4.6-4.6C18.8,6.5,16.7,4.4,14.2,4.4z M14.2,11.4
		c-1.3,0-2.4-1.1-2.4-2.4c0-1.3,1.1-2.4,2.4-2.4s2.4,1.1,2.4,2.4C16.6,10.3,15.5,11.4,14.2,11.4z"/>
</g>
</svg>
