<svg xmlns="http://www.w3.org/2000/svg" xmlns:xlink="http://www.w3.org/1999/xlink" width="24" height="24" viewBox="-2 -2 21 21" version="1.1">
    <!-- Generator: Sketch 52.2 (67145) - http://www.bohemiancoding.com/sketch -->
    <title>write</title>
    <desc>Created with Sketch.</desc>
    <g id="Page-1" stroke="none" stroke-width="1" fill="none" fill-rule="evenodd">
        <g id="1-Expediente-incial" transform="translate(-374.000000, -855.000000)" fill="#2D72B4" fill-rule="nonzero">
            <g id="write" transform="translate(373.000000, 855.000000)">
                <path d="M16.001,10 C15.448,10 15.001,10.448 15.001,11 L15.001,13.5 C15.001,13.776 14.777,14 14.501,14 L3.499,14 C3.223,14 2.999,13.776 2.999,13.5 L2.999,2.5 C2.999,2.224 3.223,2 3.499,2 L5.999,2 C6.552,2 6.999,1.552 6.999,1 C6.999,0.448 6.551,0 5.999,0 L1.999,0 C1.446,0 0.999,0.448 0.999,1 L0.999,15 C0.999,15.552 1.447,16 1.999,16 L16.001,16 C16.554,16 17.001,15.552 17.001,15 L17.001,11 C17.001,10.448 16.554,10 16.001,10 Z" id="Shape"/>
                <path d="M13.169,2.403 L14.598,3.832 L8.65,10 L7,10 L7,8.35 L13.169,2.403 Z M13.182,0 C12.926,0 12.671,0.097 12.476,0.292 L5,7.5 L5,12 L9.501,12 L16.71,4.525 C17.1,4.135 17.1,3.504 16.71,3.114 L13.888,0.292 C13.694,0.097 13.438,6.66133815e-16 13.183,6.66133815e-16 L13.182,0 Z" id="Shape"/>
            </g>
        </g>
    </g>
</svg>