<?xml version="1.0" encoding="UTF-8"?>
<svg width="21px" height="17px" viewBox="0 0 21 17" version="1.1" xmlns="http://www.w3.org/2000/svg" xmlns:xlink="http://www.w3.org/1999/xlink">
    <!-- Generator: Sketch 52.2 (67145) - http://www.bohemiancoding.com/sketch -->
    <title>Group</title>
    <desc>Created with Sketch.</desc>
    <g id="Desk" stroke="none" stroke-width="1" fill="none" fill-rule="evenodd">
        <g id="Documento-conversado" transform="translate(-1262.000000, -863.000000)" fill="#2D72B4" fill-rule="nonzero">
            <g id="Group" transform="translate(1262.000000, 863.000000)">
                <path d="M10.3888889,-5.59552404e-13 C6.62233951,-5.59552404e-13 2.85694444,2.69303086 -2.0250468e-13,8.08024691 C2.85694444,13.4663086 6.62233951,16.1604938 10.3888889,16.1604938 C14.1554383,16.1604938 17.9208333,13.467463 20.7777778,8.08024691 C17.9208333,2.69418519 14.1554383,-5.59552404e-13 10.3888889,-5.59552404e-13 Z M10.3888889,13.8518519 C7.64968519,13.8518519 4.87238889,11.7648395 2.65147531,8.08024691 C4.87238889,4.39565432 7.65083951,2.30864198 10.3888889,2.30864198 C13.1269383,2.30864198 15.9053889,4.39565432 18.1263025,8.08024691 C15.9053889,11.7648395 13.1269383,13.8518519 10.3888889,13.8518519 Z" id="Shape"></path>
                <path d="M12.617284,8.30864198 C12.617284,9.58416667 11.5830123,10.617284 10.308642,10.617284 C9.0342716,10.617284 8,9.58301235 8,8.30864198 C8,7.0342716 9.0342716,6 10.308642,6 C11.5830123,6 12.617284,7.0342716 12.617284,8.30864198 Z" id="Shape"></path>
            </g>
        </g>
    </g>
</svg>