<?xml version="1.0" encoding="utf-8"?>
<!-- Generator: Adobe Illustrator 21.0.2, SVG Export Plug-In . SVG Version: 6.00 Build 0)  -->
<svg version="1.1" id="Layer_1" xmlns="http://www.w3.org/2000/svg" xmlns:xlink="http://www.w3.org/1999/xlink" x="0px" y="0px"
	 viewBox="0 0 22.7 24" style="enable-background:new 0 0 22.7 24;" xml:space="preserve">
<title>file-text</title>
<path d="M20.9,7.6c-0.1-0.1-0.1-0.2-0.2-0.3l-6-6c-0.1-0.1-0.2-0.2-0.3-0.2C14.3,1,14.1,1,14,1H6C4.3,1,3,2.3,3,4v6.9h2V4
	c0-0.6,0.4-1,1-1h7v5c0,0.6,0.4,1,1,1h5v11c0,0.6-0.4,1-1,1H6c-0.6,0-1-0.4-1-1v-1.2H3V20c0,1.7,1.3,3,3,3h12c1.7,0,3-1.3,3-3V8
	C21,7.9,21,7.7,20.9,7.6z M15,7V4.4L17.6,7H15z"/>
<g>
	<path d="M1.8,12.5h2.4c0.5,0,0.9,0.1,1.2,0.4c0.3,0.2,0.4,0.6,0.4,1.1c0,0.5-0.1,0.8-0.4,1.1s-0.7,0.4-1.3,0.4H3.3v1.7H1.8V12.5z
		 M3.3,14.6h0.4c0.3,0,0.5,0,0.6-0.1c0.1-0.1,0.2-0.2,0.2-0.4c0-0.1,0-0.3-0.1-0.4c-0.1-0.1-0.3-0.2-0.6-0.2H3.3V14.6z"/>
	<path d="M6.6,12.5h2.2c0.4,0,0.8,0.1,1,0.2c0.3,0.1,0.5,0.3,0.6,0.5c0.2,0.2,0.3,0.5,0.4,0.8s0.1,0.6,0.1,0.9
		c0,0.5-0.1,0.9-0.2,1.2c-0.1,0.3-0.3,0.5-0.5,0.7s-0.4,0.3-0.7,0.4c-0.3,0.1-0.6,0.1-0.9,0.1H6.6V12.5z M8,13.6v2.6h0.4
		c0.3,0,0.5,0,0.6-0.1c0.1-0.1,0.2-0.2,0.3-0.4s0.1-0.4,0.1-0.8c0-0.5-0.1-0.8-0.2-1c-0.2-0.2-0.4-0.3-0.8-0.3H8z"/>
	<path d="M11.7,12.5h3.6v1h-2.1v0.8H15v1h-1.8v1.9h-1.5V12.5z"/>
</g>
</svg>
