<?xml version="1.0" encoding="utf-8"?>
<!-- Generator: Adobe Illustrator 22.1.0, SVG Export Plug-In . SVG Version: 6.00 Build 0)  -->
<svg version="1.1" id="Layer_1" xmlns="http://www.w3.org/2000/svg" xmlns:xlink="http://www.w3.org/1999/xlink" x="0px" y="0px"
	 viewBox="0 0 24 24" style="enable-background:new 0 0 24 24;" xml:space="preserve">
<title>file-text</title>
<g>
	<path d="M1.8,12.7h1.5L4,14l0.7-1.3h1.5l-1.3,2.1L6.3,17H4.8L4,15.6L3.1,17H1.6l1.5-2.2L1.8,12.7z"/>
	<path d="M6.7,12.7h1.3v3.2h2.1V17H6.7V12.7z"/>
	<path d="M10.5,15.6l1.3-0.1c0,0.2,0.1,0.4,0.2,0.5c0.1,0.2,0.3,0.3,0.6,0.3c0.2,0,0.3,0,0.4-0.1c0.1-0.1,0.2-0.2,0.2-0.3
		c0-0.1,0-0.2-0.1-0.3c-0.1-0.1-0.3-0.2-0.7-0.2c-0.6-0.1-1-0.3-1.2-0.5c-0.3-0.2-0.4-0.5-0.4-0.8c0-0.2,0.1-0.4,0.2-0.6
		c0.1-0.2,0.3-0.4,0.6-0.5s0.6-0.2,1.1-0.2c0.6,0,1,0.1,1.3,0.3c0.3,0.2,0.5,0.5,0.5,1L13,14c0-0.2-0.1-0.3-0.2-0.4
		c-0.1-0.1-0.3-0.1-0.4-0.1c-0.2,0-0.3,0-0.4,0.1c-0.1,0.1-0.1,0.1-0.1,0.2c0,0.1,0,0.1,0.1,0.2c0.1,0.1,0.2,0.1,0.4,0.2
		c0.6,0.1,1,0.3,1.3,0.4c0.3,0.1,0.4,0.3,0.5,0.5c0.1,0.2,0.2,0.4,0.2,0.6c0,0.3-0.1,0.5-0.2,0.8c-0.2,0.2-0.4,0.4-0.6,0.5
		c-0.3,0.1-0.6,0.2-1,0.2c-0.7,0-1.2-0.1-1.5-0.4C10.7,16.4,10.6,16,10.5,15.6z"/>
</g>
<path d="M20.9,7.6c-0.1-0.1-0.1-0.2-0.2-0.3l-6-6c-0.1-0.1-0.2-0.2-0.3-0.2C14.3,1,14.1,1,14,1H6C4.3,1,3,2.3,3,4v6.9h2V4
	c0-0.6,0.4-1,1-1h7v5c0,0.6,0.4,1,1,1h5v11c0,0.6-0.4,1-1,1H6c-0.6,0-1-0.4-1-1v-1.2H3V20c0,1.7,1.3,3,3,3h12c1.7,0,3-1.3,3-3V8
	C21,7.9,21,7.7,20.9,7.6z M15,7V4.4L17.6,7H15z"/>
</svg>
