<?xml version="1.0" encoding="utf-8"?>
<!-- Generator: Adobe Illustrator 22.1.0, SVG Export Plug-In . SVG Version: 6.00 Build 0)  -->
<svg version="1.1" id="Layer_1" xmlns="http://www.w3.org/2000/svg" xmlns:xlink="http://www.w3.org/1999/xlink" x="0px" y="0px"
	 viewBox="0 0 22.6 27.1" style="enable-background:new 0 0 22.6 27.1;" xml:space="preserve">
<style type="text/css">
	.st0{stroke:#000000;stroke-width:0.5;stroke-miterlimit:10;}
</style>
<title>Cone, filter, funnel, sort</title>
<g>
	<path class="st0" d="M9.1,26.6c-0.6,0-1-0.4-1-1V15L0.6,2.1C0.4,1.6,0.5,1,1,0.7c0.2-0.1,0.3-0.1,0.5-0.1h19.6c0.6,0,1,0.4,1,1
		c0,0.2,0,0.3-0.1,0.5L14.5,15v8.5c0,0.4-0.2,0.7-0.6,0.9l-4.4,2.2C9.4,26.6,9.3,26.6,9.1,26.6z M3.2,2.6L10,14.2
		c0.1,0.2,0.1,0.3,0.1,0.5V24l2.4-1.2v-8.1c0-0.2,0-0.3,0.1-0.5l6.8-11.6H3.2z"/>
</g>
</svg>
