<?xml version="1.0" encoding="utf-8"?>
<!-- Generator: Adobe Illustrator 22.1.0, SVG Export Plug-In . SVG Version: 6.00 Build 0)  -->
<svg version="1.1" id="Layer_1" xmlns="http://www.w3.org/2000/svg" xmlns:xlink="http://www.w3.org/1999/xlink" x="0px" y="0px"
	 viewBox="0 0 24.1 24.1" style="enable-background:new 0 0 24.1 24.1;" xml:space="preserve">
<g>
	<g>
		<g>
			<path d="M9.6,7.7C9.4,7.5,9.1,7.3,8.9,7C8.3,6.4,7.7,5.9,7.2,5.3C6.5,4.6,5.8,3.9,5.1,3.2C4.5,2.6,3.9,2,3.3,1.4
				C3,1.1,2.7,0.8,2.4,0.5c0,0,0,0,0,0C2.1,0.3,1.8,0.1,1.4,0.1c-0.3,0-0.7,0.1-0.9,0.4C0.3,0.8,0.1,1.1,0.1,1.4
				c0,0.4,0.1,0.7,0.4,0.9C0.7,2.6,1,2.9,1.2,3.1c0.6,0.6,1.2,1.2,1.7,1.7C3.6,5.5,4.3,6.2,5,6.9c0.6,0.6,1.2,1.2,1.8,1.8
				C7.1,9,7.4,9.3,7.7,9.6c0,0,0,0,0,0C8,9.9,8.3,10,8.7,10C9,10,9.4,9.9,9.6,9.6C9.8,9.4,10,9,10,8.7C10,8.3,9.9,8,9.6,7.7L9.6,7.7
				z"/>
		</g>
	</g>
	<g>
		<g>
			<path d="M23.6,21.7c-0.2-0.2-0.5-0.5-0.7-0.7c-0.6-0.6-1.1-1.1-1.7-1.7c-0.7-0.7-1.4-1.4-2.1-2.1c-0.6-0.6-1.2-1.2-1.8-1.8
				c-0.3-0.3-0.6-0.6-0.9-0.9c0,0,0,0,0,0c-0.2-0.2-0.6-0.4-0.9-0.4c-0.3,0-0.7,0.1-0.9,0.4c-0.2,0.3-0.4,0.6-0.4,0.9
				c0,0.4,0.1,0.7,0.4,0.9c0.2,0.2,0.5,0.5,0.7,0.7c0.6,0.6,1.1,1.1,1.7,1.7c0.7,0.7,1.4,1.4,2.1,2.1c0.6,0.6,1.2,1.2,1.8,1.8
				c0.3,0.3,0.6,0.6,0.9,0.9c0,0,0,0,0,0c0.2,0.2,0.6,0.4,0.9,0.4c0.3,0,0.7-0.1,0.9-0.4c0.2-0.3,0.4-0.6,0.4-0.9
				C24,22.3,23.8,22,23.6,21.7L23.6,21.7z"/>
		</g>
	</g>
	<g>
		<g>
			<path d="M7.7,14.5C7.5,14.7,7.3,15,7,15.2c-0.6,0.6-1.2,1.2-1.7,1.7c-0.7,0.7-1.4,1.4-2.1,2.1c-0.6,0.6-1.2,1.2-1.8,1.8
				c-0.3,0.3-0.6,0.6-0.9,0.9c0,0,0,0,0,0c-0.2,0.2-0.4,0.6-0.4,0.9c0,0.3,0.1,0.7,0.4,0.9C0.7,23.8,1.1,24,1.4,24
				c0.4,0,0.7-0.1,0.9-0.4c0.2-0.2,0.5-0.5,0.7-0.7c0.6-0.6,1.2-1.2,1.7-1.7c0.7-0.7,1.4-1.4,2.1-2.1c0.6-0.6,1.2-1.2,1.8-1.8
				C9,17,9.3,16.7,9.6,16.4c0,0,0,0,0,0c0.2-0.2,0.4-0.6,0.4-0.9c0-0.3-0.1-0.7-0.4-0.9c-0.3-0.2-0.6-0.4-0.9-0.4
				C8.3,14.1,8,14.2,7.7,14.5L7.7,14.5z"/>
		</g>
	</g>
	<g>
		<g>
			<path d="M21.7,0.5C21.5,0.7,21.2,1,21,1.2c-0.6,0.6-1.1,1.1-1.7,1.7c-0.7,0.7-1.4,1.4-2.1,2.1c-0.6,0.6-1.2,1.2-1.8,1.8
				c-0.3,0.3-0.6,0.6-0.9,0.9c0,0,0,0,0,0c-0.2,0.2-0.4,0.6-0.4,0.9c0,0.3,0.1,0.7,0.4,0.9c0.3,0.2,0.6,0.4,0.9,0.4
				c0.4,0,0.7-0.1,0.9-0.4c0.2-0.2,0.5-0.5,0.7-0.7c0.6-0.6,1.1-1.1,1.7-1.7c0.7-0.7,1.4-1.4,2.1-2.1c0.6-0.6,1.2-1.2,1.8-1.8
				C23,3,23.3,2.7,23.6,2.4c0,0,0,0,0,0C23.8,2.1,24,1.8,24,1.4c0-0.3-0.1-0.7-0.4-0.9c-0.3-0.2-0.6-0.4-0.9-0.4
				C22.3,0.1,22,0.2,21.7,0.5L21.7,0.5z"/>
		</g>
	</g>
	<g>
		<g>
			<path d="M2.8,8.2c0-0.8,0-1.5,0-2.3c0-1.2,0-2.4,0-3.6c0-0.3,0-0.6,0-0.8C2.3,1.9,1.9,2.3,1.4,2.8c0.8,0,1.5,0,2.3,0
				c1.2,0,2.4,0,3.6,0c0.3,0,0.6,0,0.8,0c0.3,0,0.7-0.1,0.9-0.4c0.2-0.2,0.4-0.6,0.4-0.9c0-0.3-0.1-0.7-0.4-0.9
				C8.9,0.3,8.6,0.1,8.2,0.1c-0.8,0-1.5,0-2.3,0c-1.2,0-2.4,0-3.6,0c-0.3,0-0.6,0-0.8,0c-0.7,0-1.3,0.6-1.3,1.3c0,0.8,0,1.5,0,2.3
				c0,1.2,0,2.4,0,3.6c0,0.3,0,0.6,0,0.8c0,0.3,0.1,0.7,0.4,0.9c0.2,0.2,0.6,0.4,0.9,0.4c0.3,0,0.7-0.1,0.9-0.4
				C2.6,8.9,2.8,8.5,2.8,8.2L2.8,8.2z"/>
		</g>
	</g>
	<g>
		<g>
			<path d="M15.9,24c0.8,0,1.5,0,2.3,0c1.2,0,2.4,0,3.6,0c0.3,0,0.6,0,0.8,0c0.7,0,1.3-0.6,1.3-1.3c0-0.8,0-1.5,0-2.3
				c0-1.2,0-2.4,0-3.6c0-0.3,0-0.6,0-0.8c0-0.3-0.1-0.7-0.4-0.9c-0.2-0.2-0.6-0.4-0.9-0.4c-0.3,0-0.7,0.1-0.9,0.4
				c-0.2,0.3-0.4,0.6-0.4,0.9c0,0.8,0,1.5,0,2.3c0,1.2,0,2.4,0,3.6c0,0.3,0,0.6,0,0.8c0.4-0.4,0.9-0.9,1.3-1.3c-0.8,0-1.5,0-2.3,0
				c-1.2,0-2.4,0-3.6,0c-0.3,0-0.6,0-0.8,0c-0.3,0-0.7,0.1-0.9,0.4c-0.2,0.2-0.4,0.6-0.4,0.9c0,0.3,0.1,0.7,0.4,0.9
				C15.2,23.8,15.6,24,15.9,24L15.9,24z"/>
		</g>
	</g>
	<g>
		<g>
			<path d="M8.2,21.3c-0.8,0-1.5,0-2.3,0c-1.2,0-2.4,0-3.6,0c-0.3,0-0.6,0-0.8,0c0.4,0.4,0.9,0.9,1.3,1.3c0-0.8,0-1.5,0-2.3
				c0-1.2,0-2.4,0-3.6c0-0.3,0-0.6,0-0.8c0-0.3-0.1-0.7-0.4-0.9c-0.2-0.2-0.6-0.4-0.9-0.4c-0.3,0-0.7,0.1-0.9,0.4
				c-0.2,0.3-0.4,0.6-0.4,0.9c0,0.8,0,1.5,0,2.3c0,1.2,0,2.4,0,3.6c0,0.3,0,0.6,0,0.8c0,0.7,0.6,1.3,1.3,1.3c0.8,0,1.5,0,2.3,0
				c1.2,0,2.4,0,3.6,0c0.3,0,0.6,0,0.8,0c0.3,0,0.7-0.1,0.9-0.4c0.2-0.2,0.4-0.6,0.4-0.9c0-0.3-0.1-0.7-0.4-0.9
				C8.9,21.5,8.6,21.3,8.2,21.3L8.2,21.3z"/>
		</g>
	</g>
	<g>
		<g>
			<path d="M24,8.2c0-0.8,0-1.5,0-2.3c0-1.2,0-2.4,0-3.6c0-0.3,0-0.6,0-0.8c0-0.7-0.6-1.3-1.3-1.3c-0.8,0-1.5,0-2.3,0
				c-1.2,0-2.4,0-3.6,0c-0.3,0-0.6,0-0.8,0c-0.3,0-0.7,0.1-0.9,0.4c-0.2,0.2-0.4,0.6-0.4,0.9c0,0.3,0.1,0.7,0.4,0.9
				c0.3,0.2,0.6,0.4,0.9,0.4c0.8,0,1.5,0,2.3,0c1.2,0,2.4,0,3.6,0c0.3,0,0.6,0,0.8,0c-0.4-0.4-0.9-0.9-1.3-1.3c0,0.8,0,1.5,0,2.3
				c0,1.2,0,2.4,0,3.6c0,0.3,0,0.6,0,0.8c0,0.3,0.1,0.7,0.4,0.9c0.2,0.2,0.6,0.4,0.9,0.4c0.3,0,0.7-0.1,0.9-0.4
				C23.8,8.9,24,8.5,24,8.2L24,8.2z"/>
		</g>
	</g>
</g>
</svg>
