<?xml version="1.0" encoding="utf-8"?>
<!-- Generator: Adobe Illustrator 22.1.0, SVG Export Plug-In . SVG Version: 6.00 Build 0)  -->
<svg version="1.1" id="Layer_1" xmlns="http://www.w3.org/2000/svg" xmlns:xlink="http://www.w3.org/1999/xlink" x="0px" y="0px"
	 viewBox="0 0 18 18" style="enable-background:new 0 0 18 18;" xml:space="preserve">
<title>trash</title>
<path d="M16.3,4.2h-1.4C15,3.9,15,3.6,15,3.3c0-1.5-1.3-2.7-2.7-2.7c-1.6,0-2.7,1.1-3.3,2.1c-0.6-1-1.6-2.1-3.3-2.1
	C4.2,0.5,3,1.8,3,3.3C3,3.6,3,3.9,3.1,4.2H1.7c-0.5,0-0.9,0.4-0.9,0.9v3.6c0,0.5,0.4,0.9,0.9,0.9h0.5V16c0,0.5,0.4,0.9,0.9,0.9h11.6
	c0.5,0,0.9-0.4,0.9-0.9V9.7h0.5c0.5,0,0.9-0.4,0.9-0.9V5.1C17.2,4.6,16.8,4.2,16.3,4.2z M13.9,9.7v5.4h-4V9.7H13.9z M10.3,4.2
	c0.4-0.9,1.1-1.8,2-1.8c0.5,0,0.9,0.4,0.9,0.9s-0.4,0.9-0.9,0.9H10.3z M15.3,6v1.8H9.9V6H15.3z M8.1,9.7v5.4h-4V9.7H8.1z M4.8,3.3
	c0-0.5,0.4-0.9,0.9-0.9c1,0,1.6,0.9,2,1.8h-2C5.3,4.2,4.8,3.8,4.8,3.3z M8.1,6v1.8H2.7V6H8.1z"/>
</svg>
