<?xml version="1.0" encoding="UTF-8"?>
<svg width="18px" height="16px" viewBox="0 0 18 16" version="1.1" xmlns="http://www.w3.org/2000/svg" xmlns:xlink="http://www.w3.org/1999/xlink">
    <!-- Generator: Sketch 51.2 (57519) - http://www.bohemiancoding.com/sketch -->
    <title>home negro chico copy 2</title>
    <desc>Created with Sketch.</desc>
    <defs></defs>
    <g id="Desk" stroke="none" stroke-width="1" fill="none" fill-rule="evenodd">
        <g id="Desktop-Mi-Espacio-Copy-2" transform="translate(-22.000000, -91.000000)" fill="#2A3846" fill-rule="nonzero">
            <g id="home-negro-chico-copy-2" transform="translate(22.000000, 91.000000)">
                <path d="M17.6708464,6.21815807 L9.44891543,0.156760287 C9.15897329,-0.0522534291 8.82761083,-0.0522534291 8.53766868,0.156760287 L0.315737747,6.21815807 C0.129346365,6.3435663 0.025795598,6.53167864 0.00508544453,6.71979099 C-0.015624709,6.9288047 0.025795598,7.13781842 0.150056519,7.30502939 C0.27431744,7.49314174 0.460708821,7.5976486 0.647100203,7.61854997 C0.854201737,7.63945134 1.06130327,7.5976486 1.2269845,7.47224037 L1.91041957,6.97060745 L1.91041957,15.2266492 C1.91041957,15.6655781 2.24178202,16 2.67669524,16 L7.1915087,16 C7.56429147,16 7.91636408,15.6864794 7.95778438,15.268452 L7.95778438,10.8791639 C7.95778438,10.2939255 8.41340776,9.79229262 8.95187175,9.77139125 C9.22110375,9.75048988 9.49033574,9.85499673 9.69743728,10.0849118 C9.90453881,10.2730242 10.0080896,10.544742 10.0080896,10.8164598 L10.0080896,15.2266492 L10.0080896,15.3102547 C10.0495099,15.7282822 10.3808723,16 10.7743653,16 L15.2891787,16 C15.7240919,16 16.0554544,15.6655781 16.0554544,15.2266492 L16.0554544,6.97060745 L16.7595996,7.49314174 C16.8838605,7.5976486 17.0288316,7.63945134 17.215223,7.63945134 C17.4637448,7.63945134 17.6708464,7.53494448 17.8365276,7.34683214 L17.8779479,7.30502939 C18.1057596,6.9288047 18.0022088,6.46897453 17.6708464,6.21815807 Z M9.2418139,8.24559112 C8.51695853,8.182887 7.79210316,8.41280209 7.25363916,8.89353364 C6.71517517,9.39516656 6.40452287,10.0849118 6.40452287,10.8164598 L6.40452287,14.4532985 L3.44297092,14.4532985 L3.44297092,5.84193338 L8.99329206,1.74526453 L14.5436132,5.84193338 L14.5436132,14.4741999 L11.5613511,14.4741999 L11.5613511,10.8791639 C11.5613511,9.52057479 10.5465536,8.35009798 9.2418139,8.24559112 Z" id="Shape"></path>
            </g>
        </g>
    </g>
</svg>