<?xml version="1.0" encoding="UTF-8"?>
<svg width="22px" height="24px" viewBox="0 0 22 24" version="1.1" xmlns="http://www.w3.org/2000/svg" xmlns:xlink="http://www.w3.org/1999/xlink">
    <!-- Generator: Sketch 55.2 (78181) - https://sketchapp.com -->
    <title>Group 11</title>
    <desc>Created with Sketch.</desc>
    <g id="Page-1" stroke="none" stroke-width="1" fill="none" fill-rule="evenodd" opacity="0.25">
        <g id="3.-Simulaciondetalle-del-contrato" transform="translate(-159.000000, -388.000000)" fill="#FFFFFF">
            <g id="Group-11" transform="translate(159.000000, 388.000000)">
                <path d="M3.4924343,15.5409528 C3.4924343,15.8686477 3.75306372,16.1454631 4.11794492,16.1454631 L13.2660377,16.1454631 C13.604856,16.1454631 13.8915484,15.8686477 13.8915484,15.5409528 C13.8915484,15.2135097 13.604856,14.9366943 13.2660377,14.9366943 L4.11794492,14.9366943 C3.75306372,14.9366943 3.4924343,15.2135097 3.4924343,15.5409528 Z M4.11794492,11.133065 C3.75306372,11.133065 3.4924343,11.3849443 3.4924343,11.7375754 C3.4924343,12.0650184 3.75306372,12.3420857 4.11794492,12.3420857 L13.2660377,12.3420857 C13.604856,12.3420857 13.8915484,12.0650184 13.8915484,11.7375754 C13.8915484,11.4103841 13.604856,11.133065 13.2660377,11.133065 L4.11794492,11.133065 Z M4.11794492,7.30449968 C3.75306372,7.30449968 3.4924343,7.58156691 3.4924343,7.90901 C3.4924343,8.23645309 3.75306372,8.5137722 4.11794492,8.5137722 L13.2660377,8.5137722 C13.604856,8.5137722 13.8915484,8.23645309 13.8915484,7.90901 C13.8915484,7.58156691 13.604856,7.30449968 13.2660377,7.30449968 L4.11794492,7.30449968 Z M4.11794492,3.50112226 C3.75306372,3.50112226 3.4924343,3.75300156 3.4924343,4.10588446 C3.4924343,4.43307567 3.75306372,4.7101429 4.11794492,4.7101429 L13.2660377,4.7101429 C13.604856,4.7101429 13.8915484,4.43307567 13.8915484,4.10588446 C13.8915484,3.77818949 13.604856,3.50112226 13.2660377,3.50112226 L4.11794492,3.50112226 Z M17.3839827,14.7853149 L12.3798977,19.6213974 L1.0425177,19.6213974 C0.469132965,19.6213974 -1.58095759e-13,19.1932026 -1.58095759e-13,18.6138802 L-1.58095759e-13,1.0075172 C-1.58095759e-13,0.453634618 0.469132965,-2.66453526e-14 1.0425177,-2.66453526e-14 L16.341465,-2.66453526e-14 C16.9148497,-2.66453526e-14 17.3839827,0.428194809 17.3839827,1.0075172 L17.3839827,14.7853149 Z M12.9068224,20.3694752 L18.2292644,15.2681843 L20.4990709,17.4434065 L15.1763448,22.5446974 L12.9068224,20.3694752 Z M11.9215184,21.6314532 L12.4421008,21.0893948 L14.4252721,22.9748153 L13.8796521,23.493306 C13.8300728,23.5640092 13.7557039,23.587577 13.6815829,23.6111447 L11.8964809,23.9882289 C11.5990052,24.0589321 11.326567,23.7996868 11.400688,23.5168737 L11.7975702,21.8199952 C11.8223598,21.749292 11.8719391,21.6785887 11.9215184,21.6314532 Z M21.877356,15.2346452 C22.0408813,15.3913701 22.0408813,15.6152628 21.877356,15.7943769 L21.0130077,16.62278 L19.1441465,14.8316383 L20.0084948,13.980846 C20.1720202,13.8241211 20.4056278,13.8241211 20.5691532,13.980846 L21.877356,15.2346452 Z" id="Combined-Shape"></path>
            </g>
        </g>
    </g>
</svg>