<?xml version="1.0" encoding="utf-8"?>
<!-- Generator: Adobe Illustrator 21.0.2, SVG Export Plug-In . SVG Version: 6.00 Build 0)  -->
<svg version="1.1" id="Capa_1" xmlns="http://www.w3.org/2000/svg" xmlns:xlink="http://www.w3.org/1999/xlink" x="0px" y="0px"
	 viewBox="0 0 24 24" style="enable-background:new 0 0 24 24;" xml:space="preserve">
<title>alert-circle</title>
<path d="M12,23c6.1,0,11-4.9,11-11S18.1,1,12,1S1,5.9,1,12S5.9,23,12,23z M12,3c5,0,9,4,9,9s-4,9-9,9s-9-4-9-9S7,3,12,3z"/>
<path d="M12,17c0.6,0,1-0.4,1-1v-4c0-0.6-0.4-1-1-1s-1,0.4-1,1v4C11,16.6,11.4,17,12,17z"/>
<path d="M12.7,8.7C12.9,8.5,13,8.3,13,8c0-0.3-0.1-0.5-0.3-0.7S12.3,7,12,7s-0.5,0.1-0.7,0.3C11.1,7.5,11,7.8,11,8s0.1,0.5,0.3,0.7
	C11.7,9.1,12.3,9.1,12.7,8.7z"/>
</svg>
