<?xml version="1.0" encoding="utf-8"?>
<!-- Generator: Adobe Illustrator 22.1.0, SVG Export Plug-In . SVG Version: 6.00 Build 0)  -->
<svg version="1.1" id="Layer_1" xmlns="http://www.w3.org/2000/svg" xmlns:xlink="http://www.w3.org/1999/xlink" x="0px" y="0px"
	 viewBox="0 0 22 21" style="enable-background:new 0 0 22 21;" xml:space="preserve">
<style type="text/css">
	.st0{fill:none;stroke:#231F20;stroke-width:2;stroke-linecap:round;stroke-miterlimit:10;}
</style>
<title>Group 7 Copy 2</title>
<desc>Created with Sketch.</desc>
<path d="M20.5,15.8l-6.2-4.5c0.4-0.6,0.7-1.3,0.9-2c1.1-3.8-1.2-7.8-5-8.9s-7.8,1.2-8.9,5c-1.1,3.8,1.2,7.8,5,8.9
	c1.8,0.5,3.7,0.3,5.3-0.6l5.2,6c1,0.9,2.5,1,3.2,0.2l1-1C21.7,18.2,21.5,16.8,20.5,15.8z M6.8,12.8C3.8,12,2,8.9,2.9,5.9
	s3.9-4.7,6.9-3.9s4.7,3.9,3.9,6.9C12.8,11.9,9.7,13.6,6.8,12.8z"/>
<line class="st0" x1="5" y1="7.5" x2="11.6" y2="7.5"/>
<line class="st0" x1="8.4" y1="11" x2="8.4" y2="4.4"/>
</svg>
