<?xml version="1.0" encoding="utf-8"?>
<!-- Generator: Adobe Illustrator 22.1.0, SVG Export Plug-In . SVG Version: 6.00 Build 0)  -->
<svg version="1.1" id="Layer_1" xmlns="http://www.w3.org/2000/svg" xmlns:xlink="http://www.w3.org/1999/xlink" x="0px" y="0px"
	 viewBox="0 0 87.6 74.2" style="enable-background:new 0 0 87.6 74.2;" xml:space="preserve">
<g>
	<path d="M46,51.8c2-2.1,4.3-3.7,6.8-4.8c-4.7-6.3-8.9-11.2-21-11.2C-2.1,35.8,0,74.2,0,74.2h38.5C38.5,72.4,38.3,59.9,46,51.8z"/>
	<path d="M30.4,30.6c8.4,0,15.3-6.8,15.3-15.3C45.7,6.9,38.8,0,30.4,0S15.1,6.9,15.1,15.3C15.1,23.7,21.9,30.6,30.4,30.6z"/>
	<path d="M65.5,44.3c5.7,0,10.3-4.6,10.3-10.3s-4.6-10.3-10.3-10.3c-5.7,0-10.3,4.6-10.3,10.3S59.8,44.3,65.5,44.3z"/>
	<path d="M66.5,48.7c-22.5,0-21.1,25.5-21.1,25.5h42.2C87.6,74.2,89,48.7,66.5,48.7z"/>
</g>
</svg>
