<?xml version="1.0" encoding="utf-8"?>
<!-- Generator: Adobe Illustrator 22.1.0, SVG Export Plug-In . SVG Version: 6.00 Build 0)  -->
<svg version="1.1" id="Layer_1" xmlns="http://www.w3.org/2000/svg" xmlns:xlink="http://www.w3.org/1999/xlink" x="0px" y="0px"
	 viewBox="0 0 24 24" style="enable-background:new 0 0 24 24;" xml:space="preserve">
<title>user</title>
<g>
	<path d="M3.3,12.4c0.8,0,1.3-0.5,1.3-1.3V9.1c0-1.4,1.1-2.5,2.5-2.5h10.3l-1.6,1.6c-0.5,0.5-0.5,1.3,0,1.8c0.3,0.3,0.6,0.4,0.9,0.4
		c0.4,0,0.7-0.1,0.9-0.4l3.8-3.8c0.1-0.1,0.3-0.2,0.3-0.4c0.1-0.3,0.1-0.6,0-1l-0.1-0.1c0,0,0,0,0-0.1c0-0.1-0.1-0.1-0.2-0.2
		l-3.8-3.8c-0.5-0.5-1.3-0.5-1.8,0c-0.3,0.3-0.4,0.6-0.4,0.9s0.1,0.7,0.4,0.9L17.5,4H7.2C4.3,4,2,6.3,2,9.1v1.9
		C2,11.8,2.6,12.4,3.3,12.4z"/>
	<path d="M20.7,11.7c-0.8,0-1.3,0.5-1.3,1.3v1.9c0,1.4-1.1,2.5-2.5,2.5H6.5l1.6-1.6c0.5-0.5,0.5-1.3,0-1.8c-0.5-0.5-1.3-0.5-1.8,0
		l-3.8,3.8c-0.1,0.1-0.2,0.2-0.3,0.4c-0.1,0.3-0.1,0.6,0,1l0.1,0.1c0,0,0,0,0,0.1c0,0.1,0.1,0.1,0.2,0.2l3.8,3.8
		c0.3,0.3,0.6,0.4,0.9,0.4c0.4,0,0.7-0.1,0.9-0.4c0.5-0.5,0.5-1.3,0-1.8l-1.6-1.6h10.3c2.9,0,5.2-2.3,5.2-5.2V13
		C22,12.2,21.4,11.7,20.7,11.7z"/>
</g>
</svg>
