<svg xmlns="http://www.w3.org/2000/svg" xmlns:xlink="http://www.w3.org/1999/xlink" version="1.1" x="0px" y="0px" viewBox="0 0 20 25" style="enable-background:new 0 0 20 20;" xml:space="preserve"><path d="M18.7,9.3L16,6.6V1c0-0.6-0.4-1-1-1H2C1.4,0,1,0.4,1,1v15c0,0.6,0.4,1,1,1h2v2c0,0.6,0.4,1,1,1h13c0.6,0,1-0.4,1-1v-9  C19,9.7,18.9,9.5,18.7,9.3z M13,6.4c1,1,1.6,1.6,2.6,2.6H13V6.4z M3,15V2h11v2.6l-1.3-1.3C12.5,3.1,12.3,3,12,3H5C4.4,3,4,3.4,4,4  v11H3z M17,18H6V5h5v5c0,0.6,0.4,1,1,1h5V18z"/><text x="0" y="35" fill="#000000" font-size="5px" font-weight="bold" font-family="'Helvetica Neue', Helvetica, Arial-Unicode, Arial, Sans-serif">Created by ProSymbols</text><text x="0" y="40" fill="#000000" font-size="5px" font-weight="bold" font-family="'Helvetica Neue', Helvetica, Arial-Unicode, Arial, Sans-serif">from the Noun Project</text></svg>