<?xml version="1.0" encoding="utf-8"?>
<!-- Generator: Adobe Illustrator 22.1.0, SVG Export Plug-In . SVG Version: 6.00 Build 0)  -->
<svg version="1.1" id="Layer_1" xmlns="http://www.w3.org/2000/svg" xmlns:xlink="http://www.w3.org/1999/xlink" x="0px" y="0px"
	 viewBox="0 0 24 27" style="enable-background:new 0 0 24 27;" xml:space="preserve">
<style type="text/css">
	.st0{fill:none;stroke:#000000;stroke-width:1.2;}
</style>
<title>Group 7</title>
<desc>Created with Sketch.</desc>
<g id="Group-7" transform="translate(824.000000, 717.000000)">
	<g id="Group" transform="translate(-0.000000, 0.000000)">
		<path id="Rectangle" class="st0" d="M-818.9-716h13.2c2.5,0,4.4,2,4.4,4.5v15.8c0,2.5-2,4.5-4.4,4.5h-13.2c-2.5,0-4.4-2-4.4-4.5
			v-15.8C-823.4-714-821.4-716-818.9-716z"/>
		<path id="Rectangle-Copy" class="st0" d="M-818.3-712.6c-1.1,0-1.8,0.8-1.8,1.7v10.7c0,0.6,0.5,0.9,0.9,0.9h13.6
			c0.6,0,0.9-0.5,0.9-0.9v-11.5c0-0.6-0.5-0.9-0.9-0.9H-818.3z"/>
	</g>
	<polyline id="Path" class="st0" points="-820.3,-702.2 -817.2,-706.1 -813.7,-703.1 -809.2,-708.6 -804.7,-704.6 	"/>
	<path id="XMLID_3232_" d="M-816.6-707.7c0.5,0,0.9-0.2,1.2-0.7c0.3-0.3,0.6-0.8,0.6-1.3c0-0.3-0.2-1-0.6-1.3
		c-0.3-0.2-0.8-0.3-1.2-0.3c-1.1,0-1.8,0.8-1.8,1.8c0,0.5,0.2,1.2,0.5,1.5C-817.7-707.9-817.1-707.7-816.6-707.7z M-817.9-709.6
		c0-0.7,0.5-1,1.1-1c0.3,0,0.6,0.2,0.6,0.3c0.5,0.2,0.5,0.3,0.5,0.7c0,0.3-0.2,0.7-0.3,0.8c-0.2,0.2-0.3,0.3-0.6,0.3
		c-0.3,0-0.6-0.2-0.8-0.3C-817.7-709.1-817.9-709.2-817.9-709.6z"/>
</g>
</svg>
