<?xml version="1.0" encoding="utf-8"?>
<!-- Generator: Adobe Illustrator 22.1.0, SVG Export Plug-In . SVG Version: 6.00 Build 0)  -->
<svg version="1.1" id="Layer_1" xmlns="http://www.w3.org/2000/svg" xmlns:xlink="http://www.w3.org/1999/xlink" x="0px" y="0px"
	 viewBox="0 0 18 18" style="enable-background:new 0 0 18 18;" xml:space="preserve">
<title>book</title>
<path d="M11.5,5h-3C8.2,5,8,5.2,8,5.5v1C8,6.8,8.2,7,8.5,7h3C11.8,7,12,6.8,12,6.5v-1C12,5.2,11.8,5,11.5,5z"/>
<path d="M15.1,14L15.1,14c0-0.5,0.4-0.9,0.9-1V2c0-0.6-0.4-1-1-1H4C2.9,1,2,1.9,2,3v12c0,1.1,0.9,2,2,2h11c0.6,0,1-0.4,1-1v-1
	C15.5,14.9,15.1,14.5,15.1,14z M13.6,15c0,0-0.1,0-0.1,0H5c-0.5,0-1-0.4-1-1v0c0-0.5,0.4-1,1-1h8.5c0.1,0,0.1,0,0.1,0
	c-0.5,0-0.9,0.5-0.9,1v0C12.7,14.5,13.1,14.9,13.6,15z M14,10.5c0,0.3-0.2,0.5-0.5,0.5H6c-0.3,0-0.5-0.2-0.5-0.5v-7
	C5.5,3.2,5.7,3,6,3h7.5C13.8,3,14,3.2,14,3.5V10.5z"/>
</svg>
