<?xml version="1.0" encoding="utf-8"?>
<!-- Generator: Adobe Illustrator 22.1.0, SVG Export Plug-In . SVG Version: 6.00 Build 0)  -->
<svg version="1.1" id="Layer_1" xmlns="http://www.w3.org/2000/svg" xmlns:xlink="http://www.w3.org/1999/xlink" x="0px" y="0px"
	 viewBox="0 0 22.7 24" style="enable-background:new 0 0 22.7 24;" xml:space="preserve">
<style type="text/css">
	.st0{stroke:#000000;stroke-width:0.4;stroke-miterlimit:10;}
</style>
<title>file-text</title>
<path class="st0" d="M18.9,4.7c-1.8-1.8-4.2-2.8-6.8-2.8S7,2.9,5.2,4.8C5,5,5,5.3,5.2,5.5s0.5,0.2,0.7,0C7.5,3.8,9.7,2.9,12,2.9
	c4.7,0,8.6,3.9,8.6,8.6s-3.8,8.6-8.6,8.6s-8.5-3.8-8.5-8.6v-0.1l0.9,0.9c0.1,0.1,0.2,0.2,0.4,0.2s0.3-0.1,0.4-0.2
	c0.2-0.2,0.2-0.5,0-0.7L3.3,9.8c-0.2-0.2-0.5-0.2-0.7,0l-1.7,1.7c-0.2,0.2-0.2,0.5,0,0.7s0.5,0.2,0.7,0l0.9-0.9v0.1
	c0,2.6,1,5,2.8,6.8C7.1,20,9.5,21,12.1,21s5-1,6.8-2.8c1.8-1.8,2.8-4.2,2.8-6.8S20.7,6.5,18.9,4.7L18.9,4.7z"/>
<g>
	<path d="M8.6,9.1l-0.7,1.8l-0.9,0l2.3-5.8l1.1,0l2.3,5.8l-0.9,0L11,9.1L8.6,9.1z M10.8,8.5l-0.7-1.7C10,6.5,9.9,6.1,9.8,5.8h0
		C9.7,6.1,9.6,6.5,9.5,6.8L8.8,8.5L10.8,8.5z"/>
</g>
<g>
	<path d="M13.8,8.1c0.4-0.1,1-0.1,1.7-0.1c0.9,0,1.5,0.1,1.9,0.4c0.4,0.2,0.6,0.6,0.6,1c0,0.6-0.4,1.1-1.2,1.3v0
		c0.7,0.1,1.4,0.6,1.4,1.5c0,0.5-0.2,0.9-0.6,1.2c-0.5,0.4-1.3,0.5-2.4,0.5c-0.6,0-1.1,0-1.4-0.1V8.1z M14.7,10.5h0.8
		c1,0,1.5-0.4,1.5-1c0-0.7-0.6-1-1.5-1c-0.4,0-0.7,0-0.8,0.1V10.5z M14.7,13.3c0.2,0,0.4,0,0.8,0c0.9,0,1.8-0.3,1.8-1.1
		c0-0.8-0.8-1.1-1.8-1.1h-0.7V13.3z"/>
</g>
<g>
	<path d="M12.9,17.9c-0.3,0.1-1,0.3-1.8,0.3c-1.9,0-3.4-1-3.4-3c0-1.8,1.5-3.1,3.6-3.1c0.9,0,1.4,0.2,1.6,0.3L12.7,13
		c-0.3-0.1-0.8-0.2-1.4-0.2c-1.6,0-2.7,0.9-2.7,2.4c0,1.4,1,2.3,2.6,2.3c0.5,0,1.1-0.1,1.4-0.2L12.9,17.9z"/>
</g>
</svg>
