<?xml version="1.0" encoding="utf-8"?>
<!-- Generator: Adobe Illustrator 22.1.0, SVG Export Plug-In . SVG Version: 6.00 Build 0)  -->
<svg version="1.1" id="Layer_1" xmlns="http://www.w3.org/2000/svg" xmlns:xlink="http://www.w3.org/1999/xlink" x="0px" y="0px"
	 viewBox="0 0 24 24" style="enable-background:new 0 0 24 24;" xml:space="preserve">
<title>file-text</title>
<g id="Desk">
	<g id="Desktop-Bandeja-Principal" transform="translate(-1290.000000, -171.000000)">
		<g id="refesh-icon" transform="translate(1290.000000, 171.000000)">
			<path id="Shape" d="M9.2,10c0-0.1,0.1-0.1,0.1-0.2c0-5.5,2.9-6.8,3.6-7.2c0.1-0.1,0.1-0.1,0-0.1c-4.5,0-7.3,3.1-7.3,7.3
				c0,0.1,0,0.1,0,0.2H3l4.4,5.5l4.4-5.5H9.2z"/>
			<path id="Shape_1_" d="M21,14l-4.4-5.5L12.1,14h2.7c0,0.1-0.1,0.1-0.1,0.2c0,5.5-2.9,6.8-3.6,7.2c-0.1,0.1-0.1,0.1,0,0.1
				c4.5,0,7.3-3.1,7.3-7.3c0-0.1,0-0.1,0-0.2L21,14L21,14z"/>
		</g>
	</g>
</g>
</svg>
