<?xml version="1.0" encoding="utf-8"?>
<!-- Generator: Adobe Illustrator 22.1.0, SVG Export Plug-In . SVG Version: 6.00 Build 0)  -->
<svg version="1.1" id="Layer_1" xmlns="http://www.w3.org/2000/svg" xmlns:xlink="http://www.w3.org/1999/xlink" x="0px" y="0px"
	 viewBox="0 0 18 18" style="enable-background:new 0 0 18 18;" xml:space="preserve">
<title>cart</title>
<path d="M14.7,11.1h-2.6l-0.9-3.8c0.7-0.7,1.2-1.6,1.2-2.6c0-1.9-1.5-3.4-3.4-3.4c-1.9,0-3.4,1.6-3.4,3.4c0,1,0.4,1.9,1.2,2.6
	l-0.9,3.8H3.3c-1.1,0-2,0.9-2,2v3.6h15.5v-3.6C16.8,12,15.8,11.1,14.7,11.1z M9,3.2c0.8,0,1.5,0.6,1.5,1.4c0,0.5-0.3,1-0.7,1.3
	L9.1,6.3l1.5,6.9l4.2,0l0,1.6H3.3l0-1.6h4.2L9,6.3L8.3,5.9C7.9,5.7,7.6,5.2,7.6,4.7C7.6,3.9,8.2,3.2,9,3.2z"/>
</svg>
