<svg xmlns="http://www.w3.org/2000/svg" xmlns:xlink="http://www.w3.org/1999/xlink" width="24" height="24" viewBox="-2 -2 21 21" version="1.1">
    <!-- Generator: Sketch 52.2 (67145) - http://www.bohemiancoding.com/sketch -->
    <title>upload</title>
    <desc>Created with Sketch.</desc>
    <g id="Page-1" stroke="none" stroke-width="1" fill="none" fill-rule="evenodd">
        <g id="1-Expediente-incial" transform="translate(-1225.000000, -860.000000)" fill="#2D72B4">
            <g id="upload" transform="translate(1225.000000, 860.000000)">
                <path d="M16.15,10.2 C15.64,10.2 15.3,10.54 15.3,11.05 L15.3,14.45 C15.3,14.96 14.96,15.3 14.45,15.3 L2.55,15.3 C2.04,15.3 1.7,14.96 1.7,14.45 L1.7,11.05 C1.7,10.54 1.36,10.2 0.85,10.2 C0.34,10.2 0,10.54 0,11.05 L0,14.45 C0,15.895 1.105,17 2.55,17 L14.45,17 C15.895,17 17,15.895 17,14.45 L17,11.05 C17,10.54 16.66,10.2 16.15,10.2 Z" id="Path"/>
                <path d="M4.845,5.695 L7.65,2.89 L7.65,11.05 C7.65,11.56 7.99,11.9 8.5,11.9 C9.01,11.9 9.35,11.56 9.35,11.05 L9.35,2.89 L12.155,5.695 C12.325,5.865 12.495,5.95 12.75,5.95 C13.005,5.95 13.175,5.865 13.345,5.695 C13.685,5.355 13.685,4.845 13.345,4.505 L9.095,0.255 C9.01,0.17 8.925,0.085 8.84,0.085 C8.67,-1.13103971e-15 8.415,-1.13103971e-15 8.16,0.085 C8.075,0.17 7.99,0.17 7.905,0.255 L3.655,4.505 C3.315,4.845 3.315,5.355 3.655,5.695 C3.995,6.035 4.505,6.035 4.845,5.695 Z" id="Path"/>
            </g>
        </g>
    </g>
</svg>