<?xml version="1.0" encoding="utf-8"?>
<!-- Generator: Adobe Illustrator 22.1.0, SVG Export Plug-In . SVG Version: 6.00 Build 0)  -->
<svg version="1.1" id="Layer_1" xmlns="http://www.w3.org/2000/svg" xmlns:xlink="http://www.w3.org/1999/xlink" x="0px" y="0px"
	 viewBox="0 0 235 235" style="enable-background:new 0 0 235 235;" xml:space="preserve">
<style type="text/css">
	.st0{display:none;}
	.st1{display:inline;}
	.st2{fill:none;stroke:#000000;stroke-width:0.1;stroke-miterlimit:10;}
	.st3{fill:#556080;}
</style>
<g class="st0">
	<g class="st1">
		<rect x="-142.1" y="-253" class="st2" width="512" height="512"/>
		<line class="st2" x1="-142.1" y1="243" x2="369.9" y2="243"/>
		<line class="st2" x1="-142.1" y1="227" x2="369.9" y2="227"/>
		<line class="st2" x1="-142.1" y1="211" x2="369.9" y2="211"/>
		<line class="st2" x1="-142.1" y1="195" x2="369.9" y2="195"/>
		<line class="st2" x1="-142.1" y1="179" x2="369.9" y2="179"/>
		<line class="st2" x1="-142.1" y1="163" x2="369.9" y2="163"/>
		<line class="st2" x1="-142.1" y1="147" x2="369.9" y2="147"/>
		<line class="st2" x1="-142.1" y1="131" x2="369.9" y2="131"/>
		<line class="st2" x1="-142.1" y1="115" x2="369.9" y2="115"/>
		<line class="st2" x1="-142.1" y1="99" x2="369.9" y2="99"/>
		<line class="st2" x1="-142.1" y1="83" x2="369.9" y2="83"/>
		<line class="st2" x1="-142.1" y1="67" x2="369.9" y2="67"/>
		<line class="st2" x1="-142.1" y1="51" x2="369.9" y2="51"/>
		<line class="st2" x1="-142.1" y1="35" x2="369.9" y2="35"/>
		<line class="st2" x1="-142.1" y1="19" x2="369.9" y2="19"/>
		<line class="st2" x1="-142.1" y1="3" x2="369.9" y2="3"/>
		<line class="st2" x1="-142.1" y1="-13" x2="369.9" y2="-13"/>
		<line class="st2" x1="-142.1" y1="-29" x2="369.9" y2="-29"/>
		<line class="st2" x1="-142.1" y1="-45" x2="369.9" y2="-45"/>
		<line class="st2" x1="-142.1" y1="-61" x2="369.9" y2="-61"/>
		<line class="st2" x1="-142.1" y1="-77" x2="369.9" y2="-77"/>
		<line class="st2" x1="-142.1" y1="-93" x2="369.9" y2="-93"/>
		<line class="st2" x1="-142.1" y1="-109" x2="369.9" y2="-109"/>
		<line class="st2" x1="-142.1" y1="-125" x2="369.9" y2="-125"/>
		<line class="st2" x1="-142.1" y1="-141" x2="369.9" y2="-141"/>
		<line class="st2" x1="-142.1" y1="-157" x2="369.9" y2="-157"/>
		<line class="st2" x1="-142.1" y1="-173" x2="369.9" y2="-173"/>
		<line class="st2" x1="-142.1" y1="-189" x2="369.9" y2="-189"/>
		<line class="st2" x1="-142.1" y1="-205" x2="369.9" y2="-205"/>
		<line class="st2" x1="-142.1" y1="-221" x2="369.9" y2="-221"/>
		<line class="st2" x1="-142.1" y1="-237" x2="369.9" y2="-237"/>
		<line class="st2" x1="353.9" y1="-253" x2="353.9" y2="259"/>
		<line class="st2" x1="337.9" y1="-253" x2="337.9" y2="259"/>
		<line class="st2" x1="321.9" y1="-253" x2="321.9" y2="259"/>
		<line class="st2" x1="305.9" y1="-253" x2="305.9" y2="259"/>
		<line class="st2" x1="289.9" y1="-253" x2="289.9" y2="259"/>
		<line class="st2" x1="273.9" y1="-253" x2="273.9" y2="259"/>
		<line class="st2" x1="257.9" y1="-253" x2="257.9" y2="259"/>
		<line class="st2" x1="241.9" y1="-253" x2="241.9" y2="259"/>
		<line class="st2" x1="225.9" y1="-253" x2="225.9" y2="259"/>
		<line class="st2" x1="209.9" y1="-253" x2="209.9" y2="259"/>
		<line class="st2" x1="193.9" y1="-253" x2="193.9" y2="259"/>
		<line class="st2" x1="177.9" y1="-253" x2="177.9" y2="259"/>
		<line class="st2" x1="161.9" y1="-253" x2="161.9" y2="259"/>
		<line class="st2" x1="145.9" y1="-253" x2="145.9" y2="259"/>
		<line class="st2" x1="129.9" y1="-253" x2="129.9" y2="259"/>
		<line class="st2" x1="113.9" y1="-253" x2="113.9" y2="259"/>
		<line class="st2" x1="97.9" y1="-253" x2="97.9" y2="259"/>
		<line class="st2" x1="81.9" y1="-253" x2="81.9" y2="259"/>
		<line class="st2" x1="65.9" y1="-253" x2="65.9" y2="259"/>
		<line class="st2" x1="49.9" y1="-253" x2="49.9" y2="259"/>
		<line class="st2" x1="33.9" y1="-253" x2="33.9" y2="259"/>
		<line class="st2" x1="17.9" y1="-253" x2="17.9" y2="259"/>
		<line class="st2" x1="1.9" y1="-253" x2="1.9" y2="259"/>
		<line class="st2" x1="-14.1" y1="-253" x2="-14.1" y2="259"/>
		<line class="st2" x1="-30.1" y1="-253" x2="-30.1" y2="259"/>
		<line class="st2" x1="-46.1" y1="-253" x2="-46.1" y2="259"/>
		<line class="st2" x1="-62.1" y1="-253" x2="-62.1" y2="259"/>
		<line class="st2" x1="-78.1" y1="-253" x2="-78.1" y2="259"/>
		<line class="st2" x1="-94.1" y1="-253" x2="-94.1" y2="259"/>
		<line class="st2" x1="-110.1" y1="-253" x2="-110.1" y2="259"/>
		<line class="st2" x1="-126.1" y1="-253" x2="-126.1" y2="259"/>
	</g>
</g>
<g>
	<path class="st3" d="M117.5,21.3C54.2,21.3,2.8,72.7,2.8,136c0,29.8,11.2,56.8,29.7,77.1V210c0-24.3,19.8-44.1,44.1-44.1h81.1
		c24.3,0,44.1,19.8,44.1,44.1v3.8c19-20.5,30.5-47.7,30.3-77.8C232.1,72.7,180.8,21.3,117.5,21.3z M117.6,155.1
		c-28.8,0-52.1-23.3-52.1-52.1s23.3-52.1,52.1-52.1s52.1,23.3,52.1,52.1S146.4,155.1,117.6,155.1z"/>
</g>
</svg>
