<?xml version="1.0" encoding="UTF-8"?>
<svg width="20px" height="23px" viewBox="0 0 20 23" version="1.1" xmlns="http://www.w3.org/2000/svg" xmlns:xlink="http://www.w3.org/1999/xlink">
    <!-- Generator: Sketch 55.2 (78181) - https://sketchapp.com -->
    <title>Group 8</title>
    <desc>Created with Sketch.</desc>
    <g id="Page-1" stroke="none" stroke-width="1" fill="none" fill-rule="evenodd" opacity="0.25">
        <g id="2.informacion-del-contrato" transform="translate(-631.000000, -391.000000)" fill="#FFFFFF">
            <g id="Group-8" transform="translate(631.000000, 391.000000)">
                <path d="M15.7353635,3.06666667 C15.8622616,2.55555556 16.3444744,2.04444444 16.8774464,2.04444444 C17.2073814,2.04444444 17.8164923,2.17222222 18.0195292,3.06666667 L15.7353635,3.06666667 Z M13.9334106,2.04444444 C13.8065125,2.40222222 13.7049941,2.78555556 13.7049941,3.19444444 L13.7049941,19.6777778 C13.7049941,19.8055556 13.7303737,19.9077778 13.7557533,20.01 L13.578096,20.24 L13.2735405,19.8313667 C13.0705036,19.5758111 12.7913278,19.4222222 12.4613927,19.4222222 C12.1314577,19.4222222 11.8269023,19.5758111 11.6492449,19.8313667 L11.3446895,20.24 L11.0401341,19.8313667 C10.8370972,19.5758111 10.5325417,19.4222222 10.2279863,19.4222222 C9.89805126,19.4222222 9.59349584,19.5758111 9.41583851,19.8313667 L9.11128308,20.24 L8.80672766,19.8313667 C8.60369071,19.5758111 8.29913529,19.4222222 7.99457987,19.4222222 C7.69002444,19.4222222 7.3600894,19.5758111 7.18243207,19.8313667 L6.87787665,20.24 L6.57332122,19.8313667 C6.37028427,19.5758111 6.06572885,19.4222222 5.76117343,19.4222222 C5.43123838,19.4222222 5.12668296,19.5758111 4.94902563,19.8313667 L4.64447021,20.24 L4.31453517,19.8313667 C4.11149822,19.5758111 3.80694279,19.4222222 3.50238737,19.4222222 C3.17245233,19.4222222 2.8678969,19.5758111 2.69023957,19.8313667 L2.38568415,20.24 L2.08112873,19.8313667 C2.05574911,19.8055556 2.03036949,19.78 2.00498987,19.7544444 L2.00498987,19.6777778 L2.00498987,3.19444444 C2.00498987,2.55555556 2.51258224,2.04444444 3.14707271,2.04444444 L13.9334106,2.04444444 Z M16.8774464,0 L16.6997891,0 L16.6236502,0 L3.17245233,0 C1.42125864,0 0,1.43111111 0,3.19444444 L0,19.6777778 C0,19.9333333 0.304555423,20.8535889 0.456833135,21.0577778 L1.57353635,22.5911111 C1.7765733,22.8466667 2.05574911,23 2.38568415,23 C2.71561919,23 3.02017462,22.8466667 3.19783195,22.5911111 L3.50238737,22.1822222 L3.80694279,22.5911111 C4.00997974,22.8466667 4.31453517,23 4.61909059,23 C4.94902563,23 5.25358105,22.8466667 5.43123838,22.5911111 L5.73579381,22.1822222 L6.04034923,22.5911111 C6.24338618,22.8466667 6.5479416,23 6.85249703,23 C7.15705245,23 7.48698749,22.8466667 7.66464482,22.5911111 L7.96920025,22.1822222 L8.27375567,22.5911111 C8.47679262,22.8466667 8.78134804,23 9.08590347,23 C9.41583851,23 9.72039393,22.8466667 9.89805126,22.5911111 L10.2026067,22.1822222 L10.5071621,22.5911111 C10.7101991,22.8466667 10.9893749,23 11.3193099,23 C11.6492449,23 11.9538004,22.8466667 12.1314577,22.5911111 L12.4360131,22.1822222 L12.7405685,22.5911111 C12.9436055,22.8466667 13.2227813,23 13.5527163,23 C13.8826514,23 14.1872068,22.8466667 14.3648641,22.5911111 L15.4815674,21.0577778 C15.7099839,20.7511111 15.6846043,19.8313667 15.6846043,19.6777778 L15.6846043,5.11111111 L18.9839547,5.11111111 C19.5423063,5.11111111 19.9991395,4.52333333 19.9991395,3.96111111 C20.0498987,0.383333333 17.8418719,0 16.8774464,0 L16.8774464,0 Z" id="Fill-1"></path>
                <path d="M10.2,6 L5.8,6 C5.36,6 5,6.225 5,6.5 C5,6.775 5.36,7 5.8,7 L10.2,7 C10.64,7 11,6.775 11,6.5 C11,6.225 10.64,6 10.2,6" id="Fill-6"></path>
                <path d="M10.2,4 L5.8,4 C5.36,4 5,4.225 5,4.5 C5,4.775 5.36,5 5.8,5 L10.2,5 C10.64,5 11,4.775 11,4.5 C11,4.225 10.64,4 10.2,4" id="Fill-6-Copy"></path>
                <path d="M8.00930233,11.79 C8.26976744,11.79 8.45581395,11.8575 8.53023256,11.925 C8.60465116,12.33 8.90232558,12.645 9.25581395,12.645 C9.66511628,12.645 10,12.24 10,11.745 C10,10.98 9.53488372,10.3725 8.80930233,10.125 L8.80930233,9.9 C8.80930233,9.405 8.4744186,9 8.06511628,9 C7.65581395,9 7.32093023,9.405 7.32093023,9.9 L7.32093023,10.125 C6.55813953,10.44 6,11.25 6,12.195 C6,13.41 6.89302326,14.4 8.00930233,14.4 C8.30697674,14.4 8.53023256,14.6025 8.53023256,14.805 C8.53023256,15.0075 8.30697674,15.21 8.00930233,15.21 C7.76744186,15.21 7.54418605,15.075 7.45116279,14.9625 C7.35813953,14.6025 7.07906977,14.355 6.74418605,14.355 C6.33488372,14.355 6,14.76 6,15.254775 C6,15.929775 6.59534884,16.604775 7.32093023,16.875 L7.32093023,17.1 C7.32093023,17.595 7.65581395,18 8.06511628,18 C8.4744186,18 8.80930233,17.595 8.80930233,17.1 L8.80930233,16.8075 C9.51627907,16.47 10,15.6825 10,14.7825 C10,13.5675 9.10697674,12.5775 7.99069767,12.5775 C7.69302326,12.5775 7.46976744,12.375 7.46976744,12.1725 C7.46976744,11.97 7.71162791,11.79 8.00930233,11.79" id="Fill-8"></path>
            </g>
        </g>
    </g>
</svg>