<?xml version="1.0" encoding="UTF-8"?>
<svg width="18px" height="20px" viewBox="0 0 18 20" version="1.1" xmlns="http://www.w3.org/2000/svg" xmlns:xlink="http://www.w3.org/1999/xlink">
    <!-- Generator: Sketch 52.2 (67145) - http://www.bohemiancoding.com/sketch -->
    <title>Group 10</title>
    <desc>Created with Sketch.</desc>
    <defs>
        <polygon id="path-1" points="0 0 17.9551139 0 17.9551139 19.9999556 0 19.9999556"></polygon>
    </defs>
    <g id="Page-1" stroke="none" stroke-width="1" fill="none" fill-rule="evenodd">
        <g id="1.-Bandeja-inicial-reactivaciones" transform="translate(-1360.000000, -289.000000)">
            <g id="Group-10" transform="translate(1360.000000, 289.000000)">
                <g id="Group-3">
                    <mask id="mask-2" fill="white">
                        <use xlink:href="#path-1"></use>
                    </mask>
                    <g id="Clip-2"></g>
                    <path d="M14.1265823,2.66662222 C14.2405063,2.22217778 14.6734177,1.77773333 15.1518987,1.77773333 C15.4481013,1.77773333 15.9949367,1.88884444 16.1772152,2.66662222 L14.1265823,2.66662222 Z M12.5088608,1.77773333 C12.3949367,2.08884444 12.3037975,2.42217778 12.3037975,2.77773333 L12.3037975,17.1110667 C12.3037975,17.2221778 12.3265823,17.3110667 12.3493671,17.3999556 L12.1898734,17.5999556 L11.9164557,17.2446222 C11.7341772,17.0224 11.4835443,16.8888444 11.1873418,16.8888444 C10.8911392,16.8888444 10.6177215,17.0224 10.4582278,17.2446222 L10.1848101,17.5999556 L9.91139241,17.2446222 C9.72911392,17.0224 9.4556962,16.8888444 9.18227848,16.8888444 C8.88607595,16.8888444 8.61265823,17.0224 8.45316456,17.2446222 L8.17974684,17.5999556 L7.90632911,17.2446222 C7.72405063,17.0224 7.45063291,16.8888444 7.17721519,16.8888444 C6.90379747,16.8888444 6.60759494,17.0224 6.44810127,17.2446222 L6.17468354,17.5999556 L5.90126582,17.2446222 C5.71898734,17.0224 5.44556962,16.8888444 5.1721519,16.8888444 C4.87594937,16.8888444 4.60253165,17.0224 4.44303797,17.2446222 L4.16962025,17.5999556 L3.87341772,17.2446222 C3.69113924,17.0224 3.41772152,16.8888444 3.1443038,16.8888444 C2.84810127,16.8888444 2.57468354,17.0224 2.41518987,17.2446222 L2.14177215,17.5999556 L1.86835443,17.2446222 C1.84556962,17.2221778 1.82278481,17.1999556 1.8,17.1777333 L1.8,17.1110667 L1.8,2.77773333 C1.8,2.22217778 2.2556962,1.77773333 2.82531646,1.77773333 L12.5088608,1.77773333 Z M15.1518987,-4.44444444e-05 L14.9924051,-4.44444444e-05 L14.9240506,-4.44444444e-05 L2.84810127,-4.44444444e-05 C1.27594937,-4.44444444e-05 0,1.2444 0,2.77773333 L0,17.1110667 C0,17.3332889 0.273417722,18.1335111 0.410126582,18.3110667 L1.41265823,19.6444 C1.59493671,19.8666222 1.84556962,19.9999556 2.14177215,19.9999556 C2.43797468,19.9999556 2.71139241,19.8666222 2.87088608,19.6444 L3.1443038,19.2888444 L3.41772152,19.6444 C3.6,19.8666222 3.87341772,19.9999556 4.14683544,19.9999556 C4.44303797,19.9999556 4.7164557,19.8666222 4.87594937,19.6444 L5.14936709,19.2888444 L5.42278481,19.6444 C5.60506329,19.8666222 5.87848101,19.9999556 6.15189873,19.9999556 C6.42531646,19.9999556 6.72151899,19.8666222 6.88101266,19.6444 L7.15443038,19.2888444 L7.4278481,19.6444 C7.61012658,19.8666222 7.8835443,19.9999556 8.15696203,19.9999556 C8.45316456,19.9999556 8.72658228,19.8666222 8.88607595,19.6444 L9.15949367,19.2888444 L9.43291139,19.6444 C9.61518987,19.8666222 9.86582278,19.9999556 10.1620253,19.9999556 C10.4582278,19.9999556 10.7316456,19.8666222 10.8911392,19.6444 L11.164557,19.2888444 L11.4379747,19.6444 C11.6202532,19.8666222 11.8708861,19.9999556 12.1670886,19.9999556 C12.4632911,19.9999556 12.7367089,19.8666222 12.8962025,19.6444 L13.8987342,18.3110667 C14.1037975,18.0444 14.0810127,17.2446222 14.0810127,17.1110667 L14.0810127,4.4444 L17.043038,4.4444 C17.5443038,4.4444 17.9544304,3.93328889 17.9544304,3.4444 C18,0.333288889 16.0177215,-4.44444444e-05 15.1518987,-4.44444444e-05 Z" id="Fill-1" fill="#2A3846" mask="url(#mask-2)"></path>
                </g>
                <path d="M9.56962025,2.66662222 L4.55696203,2.66662222 C4.0556962,2.66662222 3.64556962,3.06662222 3.64556962,3.55551111 C3.64556962,4.0444 4.0556962,4.4444 4.55696203,4.4444 L9.56962025,4.4444 C10.0708861,4.4444 10.4810127,4.0444 10.4810127,3.55551111 C10.4810127,3.06662222 10.0708861,2.66662222 9.56962025,2.66662222" id="Fill-4" fill="#2A3846"></path>
                <path d="M9.56962025,4.88884444 L4.55696203,4.88884444 C4.0556962,4.88884444 3.64556962,5.28884444 3.64556962,5.77773333 C3.64556962,6.26662222 4.0556962,6.66662222 4.55696203,6.66662222 L9.56962025,6.66662222 C10.0708861,6.66662222 10.4810127,6.26662222 10.4810127,5.77773333 C10.4810127,5.28884444 10.0708861,4.88884444 9.56962025,4.88884444" id="Fill-6" fill="#2A3846"></path>
                <path d="M7.40506329,9.86668889 C7.72405063,9.86668889 7.95189873,9.93335556 8.04303797,10.0000222 C8.13417722,10.4000222 8.49873418,10.7111333 8.93164557,10.7111333 C9.43291139,10.7111333 9.84303797,10.3111333 9.84303797,9.82224444 C9.84303797,9.06668889 9.27341772,8.46668889 8.38481013,8.22224444 L8.38481013,8.00002222 C8.38481013,7.51113333 7.97468354,7.11113333 7.47341772,7.11113333 C6.9721519,7.11113333 6.56202532,7.51113333 6.56202532,8.00002222 L6.56202532,8.22224444 C5.6278481,8.53335556 4.9443038,9.33335556 4.9443038,10.2666889 C4.9443038,11.4666889 6.03797468,12.4444667 7.40506329,12.4444667 C7.76962025,12.4444667 8.04303797,12.6444667 8.04303797,12.8444667 C8.04303797,13.0444667 7.76962025,13.2444667 7.40506329,13.2444667 C7.10886076,13.2444667 6.83544304,13.1111333 6.72151899,13.0000222 C6.60759494,12.6444667 6.26582278,12.4000222 5.8556962,12.4000222 C5.35443038,12.4000222 4.9443038,12.8000222 4.9443038,13.2886889 C4.9443038,13.9553556 5.67341772,14.6220222 6.56202532,14.8889111 L6.56202532,15.1111333 C6.56202532,15.6000222 6.9721519,16.0000222 7.47341772,16.0000222 C7.97468354,16.0000222 8.38481013,15.6000222 8.38481013,15.1111333 L8.38481013,14.8222444 C9.25063291,14.4889111 9.84303797,13.7111333 9.84303797,12.8222444 C9.84303797,11.6222444 8.74936709,10.6444667 7.38227848,10.6444667 C7.01772152,10.6444667 6.7443038,10.4444667 6.7443038,10.2444667 C6.7443038,10.0444667 7.04050633,9.86668889 7.40506329,9.86668889" id="Fill-8" fill="#2A3846"></path>
            </g>
        </g>
    </g>
</svg>