<?xml version="1.0" encoding="UTF-8"?>
<svg width="118px" height="58px" viewBox="0 0 118 58" version="1.1" xmlns="http://www.w3.org/2000/svg" xmlns:xlink="http://www.w3.org/1999/xlink">
    <defs>
        <polygon id="path-1" points="0 0.0191550576 33.1344052 0.0191550576 33.1344052 47.3796869 0 47.3796869"></polygon>
        <polygon id="path-3" points="0.175242962 0.250833637 13.6474927 0.250833637 13.6474927 6.09079818 0.175242962 6.09079818"></polygon>
    </defs>
    <g id="Desk" stroke="none" stroke-width="1" fill="none" fill-rule="evenodd">
        <g id="Desktop-Login" transform="translate(-530.000000, -87.000000)">
            <g id="Group-2" transform="translate(483.000000, 59.000000)">
                <g id="Logo-ginni" transform="translate(47.000000, 28.000000)">
                    <path d="M40.3064522,5.72501904 C40.0551388,5.62488585 39.798341,5.57408082 39.5428336,5.57408082 C38.2604575,5.57408082 38.1220576,6.19348877 38.1220576,6.45962447 L38.1220576,10.3586159 C38.1220576,10.7189772 38.3685319,11.1481616 39.5428336,11.1481616 C39.7889853,11.1481616 40.0373952,11.1062179 40.2825791,11.0223305 C40.7884321,10.8474667 40.8945709,10.5647898 40.8945709,10.3586159 L40.8945709,6.45962447 C40.8945709,6.31016313 40.8374689,5.93975895 40.3064522,5.72501904" id="Fill-1" fill="#63AFDE"></path>
                    <path d="M39.5431562,13.935202 C38.6533969,13.935202 38.1220576,14.4195262 38.1220576,15.2305559 L38.1220576,44.6908129 C38.1220576,45.5018426 38.6533969,45.9861667 39.5431562,45.9861667 C39.8551204,45.9861667 40.1564384,45.8723638 40.4403355,45.6471104 C40.7377823,45.4092123 40.8945709,45.0786839 40.8945709,44.6908129 L40.8945709,15.2305559 C40.8945709,14.8976749 40.7464928,14.5853785 40.4635635,14.3257196 C40.1770855,14.0666488 39.8677022,13.935202 39.5431562,13.935202" id="Fill-3" fill="#2D72B4"></path>
                    <path d="M72.2927217,13.0318902 C71.3792369,12.3454294 70.3507825,11.7828345 69.2351306,11.3601458 C68.1445628,10.9484475 67.0847532,10.608039 66.0849666,10.3484256 L66.057792,10.3421877 C64.0976368,9.95247046 62.0443116,9.75464143 59.955749,9.75464143 C57.8662905,9.75464143 55.813264,9.95247046 53.8378791,10.3454551 C52.5236435,10.6511099 51.2879454,11.0610259 50.1648279,11.5642127 C49.03096,12.0730432 48.0260968,12.6908876 47.1783088,13.4008146 C46.3182773,14.1214351 45.6281617,14.9573073 45.1273725,15.884668 C44.6185206,16.8274748 44.3602125,17.8867215 44.3602125,19.0330011 L44.3602125,44.7421608 C44.3602125,45.0923716 44.5056414,45.4039672 44.7806723,45.644273 C45.0413694,45.871212 45.3641798,45.9861667 45.7404436,45.9861667 C46.0722127,45.9861667 46.3732237,45.8715091 46.6363098,45.6430849 C46.9104448,45.4021849 47.0555751,45.0905894 47.0555751,44.7421608 L47.0555751,19.0330011 C47.0555751,17.5041332 47.7131409,16.2604243 49.0658988,15.2308816 C50.4658389,14.1656941 52.2501057,13.3948738 54.369725,12.9395106 C58.0759232,12.1440359 61.8343803,12.1440359 65.5381896,12.9389165 C66.2859392,13.1043681 67.1116292,13.3571496 67.9922656,13.6901321 C68.8591654,14.0195501 69.6624587,14.4345158 70.3803461,14.9240387 C71.0818093,15.4028681 71.6820396,15.9996227 72.1631198,16.697371 C72.6224005,17.3639301 72.8556243,18.1715834 72.8556243,19.0971619 L72.8556243,44.7421608 C72.8556243,44.9937541 72.9377454,45.3570348 73.3301347,45.6620954 C73.6087491,45.8771528 73.935143,45.9861667 74.3000591,45.9861667 C74.6389952,45.9861667 74.9450828,45.8608156 75.1863694,45.6216979 C75.4249684,45.3828773 75.5509869,45.0790048 75.5509869,44.7421608 L75.5509869,19.0971619 C75.5509869,17.7726579 75.2341489,16.5868719 74.6085357,15.5718842 C73.9987495,14.5848184 73.2196446,13.7305297 72.2927217,13.0318902" id="Fill-5" fill="#2D72B4"></path>
                    <path d="M107.642266,13.0318902 C106.728781,12.3454294 105.700028,11.7828345 104.584376,11.3601458 C103.494704,10.9487446 102.435193,10.6083361 101.434511,10.3484256 L101.407336,10.3421877 C99.4468826,9.95247046 97.393856,9.75464143 95.3049947,9.75464143 C93.2161335,9.75464143 91.1628083,9.95247046 89.1871248,10.3454551 C87.8728892,10.6511099 86.6371911,11.0610259 85.5140736,11.5642127 C84.3805043,12.0730432 83.3756411,12.6908876 82.5275545,13.4008146 C81.6678216,14.1214351 80.9777061,14.9573073 80.4769169,15.884668 C79.9677663,16.8274748 79.7097568,17.8867215 79.7097568,19.0330011 L79.7097568,44.7421608 C79.7097568,45.0926686 79.8551858,45.4042642 80.1299181,45.643976 C80.3906151,45.871212 80.7131269,45.9861667 81.0896893,45.9861667 C81.4214584,45.9861667 81.7224694,45.8715091 81.9858541,45.6430849 C82.2599891,45.4021849 82.4048208,45.0905894 82.4048208,44.7421608 L82.4048208,19.0330011 C82.4048208,17.5044303 83.0623866,16.2607214 84.4154431,15.2308816 C85.8150846,14.1656941 87.59965,13.3948738 89.7189707,12.9395106 C93.4251689,12.1440359 97.1839247,12.1440359 100.887734,12.9389165 C101.635484,13.1043681 102.461174,13.3571496 103.341511,13.6901321 C104.208411,14.0195501 105.012003,14.4345158 105.72989,14.9240387 C106.431354,15.4028681 107.031285,15.9996227 107.512365,16.697371 C107.971945,17.3639301 108.205169,18.1715834 108.205169,19.0971619 L108.205169,44.7421608 C108.205169,44.9937541 108.286991,45.3570348 108.67938,45.6620954 C108.957995,45.8771528 109.284687,45.9861667 109.649603,45.9861667 C109.988241,45.9861667 110.294328,45.8608156 110.535615,45.621995 C110.774214,45.3834714 110.900531,45.0793018 110.900531,44.7421608 L110.900531,19.0971619 C110.900531,17.7723609 110.583693,16.5862778 109.957781,15.5718842 C109.347995,14.5848184 108.569189,13.7305297 107.642266,13.0318902" id="Fill-7" fill="#2D72B4"></path>
                    <path d="M117.243696,5.72501904 C116.992705,5.62488585 116.735907,5.57408082 116.4804,5.57408082 C115.197701,5.57408082 115.059301,6.19348877 115.059301,6.45962447 L115.059301,10.3586159 C115.059301,10.7189772 115.305775,11.1481616 116.4804,11.1481616 C116.726229,11.1481616 116.974639,11.1062179 117.219823,11.0223305 C117.75213,10.8386053 117.831814,10.5275722 117.831814,10.3586159 L117.831814,6.45962447 C117.831814,6.31016313 117.774712,5.93975895 117.243696,5.72501904" id="Fill-9" fill="#DEDC00"></path>
                    <path d="M116.4804,13.935202 C115.590318,13.935202 115.059301,14.4195262 115.059301,15.2305559 L115.059301,44.6908129 C115.059301,45.5018426 115.590318,45.9861667 116.4804,45.9861667 C116.792364,45.9861667 117.093682,45.8723638 117.377256,45.6471104 C117.674703,45.4098004 117.831814,45.078978 117.831814,44.6908129 L117.831814,15.2305559 C117.831814,14.8973809 117.683414,14.5850844 117.400807,14.3257196 C117.114329,14.0666488 116.804946,13.935202 116.4804,13.935202" id="Fill-11" fill="#2D72B4"></path>
                    <g id="Group-15" transform="translate(0.000000, 9.754641)">
                        <mask id="mask-2" fill="white">
                            <use xlink:href="#path-1"></use>
                        </mask>
                        <g id="Clip-14"></g>
                        <path d="M31.9096475,6.05144226 C31.1215606,4.82651137 30.0319629,3.8046794 28.671154,3.01401201 L27.1041889,2.15152064 L27.0245781,2.1113837 C26.1090546,1.69311462 25.1329319,1.3502909 24.1217567,1.09287133 C23.1506839,0.84722123 22.1502027,0.632654622 21.1538803,0.455810695 C19.1906438,0.0936729607 17.1760168,-0.0439393785 15.1631722,0.0456897108 C13.1541893,0.137129489 11.1826353,0.481160337 9.30346537,1.06812525 C6.70868999,1.72057673 4.52622695,2.77771714 2.81697251,4.20936831 C0.947902487,5.77501045 0,7.81746727 0,10.2800039 L0,20.2055956 C0,21.5892635 0.544501805,22.8286799 1.61746444,23.8897435 C2.68151543,24.9438661 3.94845499,25.478321 5.38323061,25.478321 C5.89327403,25.478321 6.38133539,25.2812577 6.79424183,24.9088594 C7.24190371,24.5053776 7.48845935,23.9712245 7.48845935,23.4050825 C7.48845935,22.7574595 7.24220076,22.1774356 6.7924595,21.7691253 C6.37836484,21.3976323 5.89119465,21.2011726 5.38323061,21.2011726 C5.00537666,21.2011726 4.73624483,21.1036972 4.51078009,20.8855092 C4.3001681,20.6818067 4.21016044,20.4787078 4.21016044,20.2055956 L4.21016044,10.2800039 C4.21016044,9.02338593 4.68515137,8.03565526 5.70464411,7.17256033 C6.85068228,6.20293654 8.38348605,5.44908649 10.2590913,4.93273844 C11.9208169,4.48006627 13.6360125,4.2193271 15.356555,4.15776369 C17.0848209,4.09499315 18.8320984,4.211179 20.5464028,4.50088919 C21.7696753,4.70851482 22.9409631,5.00063926 24.0278873,5.36881263 C25.079462,5.72521651 26.0122147,6.1727584 26.7991134,6.69906524 C27.5352157,7.19187434 28.1115023,7.7553003 28.5113384,8.37274513 C28.8707749,8.9295319 29.0531667,9.57081747 29.0531667,10.2800039 L29.0531667,21.250363 C29.0531667,22.5118094 28.7376943,23.5312271 28.1159582,24.2802487 C27.4166907,25.1210118 26.5258228,25.8054521 25.4680099,26.3145574 C24.3582125,26.8487106 23.150981,27.2199017 21.8792886,27.4190775 C20.5576909,27.6260996 19.3272891,27.7311195 18.1981831,27.7320249 C16.9309465,27.7748778 15.610537,27.785742 14.2717102,27.7637119 C13.887618,27.7579781 13.5047142,27.7477175 13.1232955,27.7368534 C12.1495493,27.7102966 11.1428299,27.6831363 10.1450222,27.7329302 C5.88317416,27.9459879 4.37116424,31.0573546 4.37116424,33.6572018 C4.37116424,35.2189207 4.90229857,36.6089261 5.94971448,37.7885897 C6.471046,38.4259522 7.13882563,38.8958259 7.93493301,39.1849325 C8.66242069,39.4489913 9.42674319,39.5826804 10.2085919,39.5826804 L10.3526636,39.5820769 C15.3215025,39.5591415 18.5005851,39.5512952 18.8576452,39.561254 C20.8746486,39.6161782 20.8737574,40.5915358 20.8728662,41.4522165 L20.8728662,41.4863178 C20.8728662,41.970677 20.7436473,42.3180275 20.4537216,42.6128679 C20.0815117,42.9916036 19.6784081,43.167844 19.1855939,43.167844 L14.9873156,43.1681458 C12.3901638,43.2188451 12.1222202,44.55966 12.1275672,45.1336483 C12.1391523,46.3513365 13.4889702,47.3798076 15.0749469,47.3798076 L19.1855939,47.3798076 C19.964175,47.3798076 20.7276063,47.2458167 21.4556881,46.9817579 C22.2509044,46.6926513 22.9183869,46.2227776 23.4400155,45.5851134 C24.4874314,44.4054497 25.0185657,43.0157462 25.0185657,41.4540272 C25.0185657,39.1007355 24.1077951,37.7224996 23.3434726,36.9810226 C22.140994,35.813732 20.3919342,35.2717325 18.1355045,35.3710186 L10.2044332,35.3710186 C9.71132188,35.3710186 9.3079212,35.1944764 8.93511718,34.8151372 C8.64994438,34.525427 8.51686374,34.167816 8.51686374,33.6668588 C8.51656669,32.8110066 8.51626963,32.0719438 10.2926585,31.9397636 C11.1927351,31.8727681 12.1228143,31.9162246 13.1075516,31.9617936 C13.4758998,31.9789951 13.8454362,31.9958949 14.2152697,32.0073626 C15.6084576,32.0529316 16.9755047,32.030298 18.2792791,31.9427814 C19.7505925,31.9400653 21.335975,31.7792158 22.9911654,31.4650613 C24.7057668,31.1406463 26.3116461,30.5841613 27.7642451,29.8116008 C29.2688286,29.0109746 30.540521,27.915508 31.5433787,26.5559826 C32.5991121,25.1270474 33.1344052,23.3417084 33.1344052,21.250363 L33.1344052,10.2800039 C33.1344052,8.74001315 32.72239,7.31741542 31.9096475,6.05144226" id="Fill-13" fill="#2D72B4" mask="url(#mask-2)"></path>
                    </g>
                    <g id="Group-18" transform="translate(9.703796, 0.000000)">
                        <mask id="mask-4" fill="white">
                            <use xlink:href="#path-3"></use>
                        </mask>
                        <g id="Clip-17"></g>
                        <path d="M12.9201184,2.39933775 C12.0951482,1.47096826 11.0064943,0.965880524 9.82345698,0.649488096 C8.87254391,0.394948963 7.89715014,0.239888169 6.91143319,0.251289698 C5.92571623,0.239888169 4.95032246,0.394948963 3.99911445,0.649488096 C2.81637208,0.965880524 1.7277182,1.47096826 0.902748021,2.39933775 C0.177765293,3.21483211 -0.0449206141,4.48467739 0.415198611,5.25371052 C0.918085329,6.09485832 1.69379915,6.31519286 2.53646622,5.85514117 C3.87494125,5.12430317 5.21666071,4.39916593 6.54776203,3.65578624 C6.67930894,3.58224638 6.79551854,3.54633156 6.91143319,3.5466166 C7.02734784,3.54633156 7.14355744,3.58224638 7.27510434,3.65578624 C8.60620567,4.39916593 9.94792513,5.12430317 11.2864002,5.85514117 C12.1287723,6.31519286 12.904781,6.09485832 13.4076678,5.25371052 C13.867492,4.48467739 13.6451011,3.21483211 12.9201184,2.39933775" id="Fill-16" fill="#2D72B4" mask="url(#mask-4)"></path>
                    </g>
                </g>
            </g>
        </g>
    </g>
</svg>
