<?xml version="1.0" encoding="UTF-8"?>
<svg width="133px" height="23px" viewBox="0 0 133 23" version="1.1" xmlns="http://www.w3.org/2000/svg" xmlns:xlink="http://www.w3.org/1999/xlink">
    <g id="Desk" stroke="none" stroke-width="1" fill="none" fill-rule="evenodd">
        <g id="Desktop-Login" transform="translate(-596.000000, -699.000000)" fill="#2d72b4">
            <g id="pandero" transform="translate(596.000000, 699.000000)">
                <path d="M128.617042,2.28892716 C128.617042,3.44672274 129.545093,4.38751196 130.704388,4.38751196 C131.858667,4.38381755 132.796589,3.44479522 132.798046,2.28892716 C132.796589,1.13771727 131.860123,0.204477493 130.704388,0.201264964 C129.542989,0.201264964 128.617042,1.13627163 128.617042,2.28892716 M128.413793,2.28892716 C128.417515,1.0262425 129.433759,0.00369440875 130.704388,0 C131.969839,0 132.998867,1.02447561 133,2.28892716 C132.998867,3.55594873 131.97081,4.5862069 130.704388,4.5862069 C129.43117,4.58427938 128.417515,3.55594873 128.413793,2.28892716" id="Fill-1"></path>
                <path d="M129.730888,1.32862371 L129.730888,2.17705048 L129.90381,2.17705048 C130.063285,2.17705048 130.174679,2.14622727 130.238231,2.08343394 C130.301069,2.02178752 130.332726,1.91512488 130.332726,1.76573983 C130.332726,1.60889987 130.299641,1.4952124 130.235018,1.42840489 C130.169562,1.36274428 130.058763,1.32862371 129.90381,1.32862371 L129.730888,1.32862371 Z M130.706897,3.43965517 L130.497675,3.43965517 L129.834189,2.34765336 L129.730888,2.34765336 L129.730888,3.43965517 L129.560345,3.43965517 L129.560345,1.14655172 L129.90631,1.14655172 C130.11089,1.14655172 130.264652,1.19844941 130.367001,1.30224477 C130.46828,1.40589678 130.519573,1.56273674 130.519573,1.77247793 C130.519573,1.95039236 130.475777,2.0918924 130.388542,2.19368068 C130.301069,2.29604241 130.180392,2.34765336 130.027225,2.34765336 L130.706897,3.43965517 Z" id="Fill-3"></path>
                <path d="M115.802496,17.1970541 C112.438695,17.1970541 109.635612,14.6189031 109.635612,11.4644219 C109.635612,8.31229989 112.438695,6.02012328 115.802496,6.02012328 C119.163381,6.02012328 121.688077,8.31229989 121.688077,11.4644219 C121.688077,14.6189031 119.163381,17.1970541 115.802496,17.1970541 M115.802496,0 C108.79479,0 103.189655,5.15984086 103.189655,11.4644219 C103.189655,17.7727103 108.79479,22.9310345 115.802496,22.9310345 C122.810718,22.9310345 128.413793,17.7727103 128.413793,11.4644219 C128.413793,5.15984086 122.810718,0 115.802496,0" id="Fill-14"></path>
                <path d="M93.5831317,11.354036 L93.5831317,5.62098204 C95.8306711,5.62098204 96.9546134,6.76769411 96.9546134,8.77368071 C96.6727221,10.7808488 95.5461921,11.354036 93.5831317,11.354036 M100.625928,14.8773823 C102.034004,12.9309761 102.877953,10.9882832 102.877953,8.48826856 C102.877953,6.54388778 102.357299,4.56625674 101.235255,3.18004152 C99.5490827,1.51263373 96.413948,0 92.4793738,0 L87.137931,0 L87.137931,22.9310345 L93.6847437,22.9310345 L93.6847437,17.0994112 C96.4927879,17.0994112 96.6920439,19.3978988 96.7458689,22.9310345 L103.157947,22.9310345 C103.441908,18.2076407 101.755391,15.7111706 100.625928,14.8773823" id="Fill-21"></path>
                <polygon id="Fill-12" points="85.9913793 0 85.9913793 5.4453893 77.3176671 5.4453893 77.3176671 8.49183287 83.0092138 8.49183287 83.0092138 14.2508539 77.3176671 14.2508539 77.3176671 16.6243382 85.9913793 16.6243382 85.9913793 22.9310345 71.0862069 22.9310345 71.0862069 0"></polygon>
                <path d="M58.1781068,16.4436931 L58.1781068,5.87805033 C61.1795244,5.87805033 63.635693,7.87861448 63.635693,11.0166254 C63.635693,13.8708647 61.7247734,16.4436931 58.1781068,16.4436931 M58.1781068,0.0326598631 L51.6301923,0.0326598631 L51.6301923,22.8699469 L56.5413405,22.8699469 C64.1787338,22.8699469 69.9126815,17.1602879 69.9126815,11.4506289 C69.9126815,5.74096995 64.9989854,0.0326598631 58.1781068,0.0326598631" id="Fill-18"></path>
                <path d="M33.25,22.9310345 L33.255361,0.0114443956 L35.0603272,0.0114443956 C38.3383831,0.0114443956 42.0908835,2.10492729 44.0010584,3.49020406 L43.9940222,0 L50.4482759,0.0114443956 L50.4482759,22.9310345 L43.8965198,22.9310345 L43.8965198,14.6212252 C43.8965198,11.8526912 42.257073,9.63921049 39.801421,7.97590223 L39.801421,22.9310345 L33.25,22.9310345 Z" id="Fill-8"></path>
                <path d="M25.5886178,14.1143393 L22.0878586,14.1143393 C22.0878586,11.5851317 23.5442255,9.33799247 25.5886178,7.08749328 L25.5886178,14.1143393 Z M14.9836583,22.9310345 L21.2815294,22.9310345 L21.508404,19.8733056 L25.4103112,19.8534819 L25.5590401,22.9113787 L32.1034483,22.9310345 L32.1034483,0 C19.7834848,0.834781315 14.1622042,9.02820444 14.9836583,22.9310345 Z" id="Fill-16"></path>
                <path d="M6.92847058,11.1072575 L6.92847058,5.16343292 C8.79029982,5.16343292 9.58776313,7.14437302 9.58776313,8.27703222 C9.47779175,10.159553 8.85570205,11.2050073 6.92847058,11.1072575 M12.8404572,2.30224239 C10.3275085,0.607521772 6.13954541,0.0447908382 -6.83052092e-05,0.0447908382 L-6.83052092e-05,22.887114 L1.19271141,22.887114 L6.97645499,22.887114 L6.97645499,17.0509147 C11.1019189,17.1387891 15.0897477,15.1240383 15.910264,8.50533828 C15.910264,5.12142059 14.5139348,3.42803901 12.8404572,2.30224239" id="Fill-5"></path>
            </g>
        </g>
    </g>
</svg>
