<svg xmlns="http://www.w3.org/2000/svg" width="43" height="38" viewBox="0 0 43 38">
    <g fill="#2D72B4" fill-rule="nonzero">
        <path d="M42.06 29.535L26.275 2.822c-.752-1.317-2.067-2.258-3.57-2.634C21.2-.188 19.697 0 18.381.752c-.752.377-1.503 1.13-1.879 1.882L.717 29.534c-1.503 2.634-.563 6.209 2.068 7.714.751.564 1.69.752 2.63.752h31.947c1.504 0 3.007-.564 3.947-1.693C42.436 35.178 43 33.86 43 32.357c-.188-.941-.376-2.07-.94-2.822zm-3.382 4.138c-.376.377-.94.565-1.316.565H5.416c-.376 0-.564 0-.94-.188-.94-.565-1.128-1.694-.752-2.634L19.698 4.89c.188-.188.375-.564.563-.564.94-.565 2.068-.188 2.631.564l15.974 26.525c.188.188.188.564.188.94.188.565-.188.941-.376 1.317z"/>
        <path d="M22 12c-1.2 0-2 .733-2 1.833v7.334c0 1.1.8 1.833 2 1.833s2-.733 2-1.833v-7.334c0-1.1-.8-1.833-2-1.833zM20.6 27.6c-.4.4-.6.8-.6 1.4 0 .6.2 1 .6 1.4.4.4.8.6 1.4.6.6 0 1-.2 1.4-.6.4-.4.6-1 .6-1.4 0-.4-.2-1-.6-1.4-.8-.8-2-.8-2.8 0z"/>
    </g>
</svg>
