<svg xmlns="http://www.w3.org/2000/svg" width="38" height="38" viewBox="0 0 38 38">
    <g fill="#2D72B4" fill-rule="nonzero">
        <path d="M19 38c10.536 0 19-8.464 19-19S29.536 0 19 0 0 8.464 0 19s8.464 19 19 19zm0-34.667A15.602 15.602 0 0 1 34.667 19 15.602 15.602 0 0 1 19 34.667 15.602 15.602 0 0 1 3.333 19 15.602 15.602 0 0 1 19 3.333z"/>
        <path d="M27.505 12.506c-.66-.675-1.65-.675-2.31 0l-8.253 8.442-3.136-3.208c-.33-.337-.66-.506-1.156-.506-.495 0-.825.169-1.155.506-.33.338-.495.844-.495 1.182 0 .507.165.844.495 1.182l4.291 4.39c.33.337.66.506 1.156.506.495 0 .825-.169 1.155-.506l9.408-9.624c.66-.506.66-1.688 0-2.364z"/>
    </g>
</svg>
