<?xml version="1.0" standalone="no"?>
<!DOCTYPE svg PUBLIC "-//W3C//DTD SVG 20010904//EN"
 "http://www.w3.org/TR/2001/REC-SVG-20010904/DTD/svg10.dtd">
<svg version="1.0" xmlns="http://www.w3.org/2000/svg"
 width="260.000000pt" height="260.000000pt" viewBox="0 0 260.000000 260.000000"
 preserveAspectRatio="xMidYMid meet">
<metadata>
Created by potrace 1.11, written by Peter Selinger 2001-2013
</metadata>
<g transform="translate(0.000000,260.000000) scale(0.100000,-0.100000)"
fill="#000000" stroke="none">
<path d="M1160 2459 c-110 -35 -174 -120 -140 -185 14 -24 44 -40 70 -35 8 1
60 25 116 53 l100 52 112 -56 c115 -59 136 -62 168 -27 21 23 21 82 -1 115
-22 33 -81 70 -140 87 -77 22 -208 20 -285 -4z"/>
<path d="M1115 2045 c-205 -31 -357 -95 -450 -189 -91 -91 -95 -111 -95 -423
0 -286 3 -298 76 -363 48 -42 92 -60 147 -60 123 0 136 157 15 177 -21 3 -43
13 -48 23 -12 22 -9 424 3 470 23 88 160 162 357 193 216 33 494 -15 621 -107
77 -56 79 -67 79 -358 0 -141 -5 -269 -10 -290 -18 -65 -97 -128 -202 -162
-99 -32 -161 -37 -444 -39 l-229 -2 -53 -29 c-83 -47 -121 -111 -123 -212 -3
-113 81 -219 187 -238 15 -3 129 -6 253 -6 157 -1 231 -5 242 -13 37 -27 34
-98 -5 -119 -12 -7 -72 -12 -146 -13 -105 -1 -131 -5 -158 -21 -58 -33 -53
-95 10 -134 29 -18 49 -20 177 -19 159 1 202 12 255 65 51 52 70 101 70 184 0
115 -39 177 -139 221 -47 21 -65 23 -287 24 -216 1 -239 3 -258 20 -40 36 -18
114 33 115 12 1 130 2 262 4 132 2 251 6 265 10 14 3 39 9 55 11 152 27 301
116 369 221 50 76 55 119 52 437 -2 279 -3 294 -24 337 -42 86 -98 137 -217
202 -39 21 -148 54 -222 67 -32 6 -69 13 -83 16 -56 11 -260 11 -335 0z"/>
</g>
</svg>
